<?xml version="1.0" encoding="UTF-8" standalone="no"?>
<!DOCTYPE svg PUBLIC "-//W3C//DTD SVG 1.1//EN"
 "http://www.w3.org/Graphics/SVG/1.1/DTD/svg11.dtd">
<!-- Generated by graphviz version 2.47.1 (20210511.0111)
 -->
<!-- Title: snakemake_dag Pages: 1 -->
<svg width="326pt" height="481pt"
 viewBox="0.00 0.00 325.50 481.00" xmlns="http://www.w3.org/2000/svg" xmlns:xlink="http://www.w3.org/1999/xlink">
<g id="graph0" class="graph" transform="scale(1 1) rotate(0) translate(4 477)">
<title>snakemake_dag</title>
<polygon fill="white" stroke="transparent" points="-4,4 -4,-477 321.5,-477 321.5,4 -4,4"/>
<!-- 0 -->
<g id="node1" class="node">
<title>0</title>
<path fill="none" stroke="#56c9d8" stroke-width="2" stroke-dasharray="5,2" d="M202,-36C202,-36 128,-36 128,-36 122,-36 116,-30 116,-24 116,-24 116,-12 116,-12 116,-6 122,0 128,0 128,0 202,0 202,0 208,0 214,-6 214,-12 214,-12 214,-24 214,-24 214,-30 208,-36 202,-36"/>
<text text-anchor="middle" x="165" y="-15.5" font-family="sans" font-size="10.00">la_and_vcf_done</text>
</g>
<!-- 1 -->
<g id="node2" class="node">
<title>1</title>
<path fill="none" stroke="#afd856" stroke-width="2" stroke-dasharray="5,2" d="M100,-180C100,-180 12,-180 12,-180 6,-180 0,-174 0,-168 0,-168 0,-156 0,-156 0,-150 6,-144 12,-144 12,-144 100,-144 100,-144 106,-144 112,-150 112,-156 112,-156 112,-168 112,-168 112,-174 106,-180 100,-180"/>
<text text-anchor="middle" x="56" y="-159.5" font-family="sans" font-size="10.00">true_local_ancestry</text>
</g>
<!-- 1&#45;&gt;0 -->
<g id="edge1" class="edge">
<title>1&#45;&gt;0</title>
<path fill="none" stroke="grey" stroke-width="2" d="M59.65,-143.8C64.37,-124.71 74.06,-93.74 91,-72 100.14,-60.26 112.57,-49.99 124.63,-41.7"/>
<polygon fill="grey" stroke="grey" stroke-width="2" points="126.85,-44.42 133.29,-36.01 123.01,-38.57 126.85,-44.42"/>
</g>
<!-- 9 -->
<g id="node10" class="node">
<title>9</title>
<path fill="none" stroke="#56d8a9" stroke-width="2" stroke-dasharray="5,2" d="M155.5,-108C155.5,-108 112.5,-108 112.5,-108 106.5,-108 100.5,-102 100.5,-96 100.5,-96 100.5,-84 100.5,-84 100.5,-78 106.5,-72 112.5,-72 112.5,-72 155.5,-72 155.5,-72 161.5,-72 167.5,-78 167.5,-84 167.5,-84 167.5,-96 167.5,-96 167.5,-102 161.5,-108 155.5,-108"/>
<text text-anchor="middle" x="134" y="-87.5" font-family="sans" font-size="10.00">write_vcfs</text>
</g>
<!-- 1&#45;&gt;9 -->
<g id="edge15" class="edge">
<title>1&#45;&gt;9</title>
<path fill="none" stroke="grey" stroke-width="2" d="M75.28,-143.7C84.92,-135.05 96.73,-124.45 107.23,-115.03"/>
<polygon fill="grey" stroke="grey" stroke-width="2" points="109.84,-117.39 114.94,-108.1 105.16,-112.18 109.84,-117.39"/>
</g>
<!-- 2 -->
<g id="node3" class="node">
<title>2</title>
<path fill="none" stroke="#d85656" stroke-width="2" stroke-dasharray="5,2" d="M149.5,-324C149.5,-324 40.5,-324 40.5,-324 34.5,-324 28.5,-318 28.5,-312 28.5,-312 28.5,-300 28.5,-300 28.5,-294 34.5,-288 40.5,-288 40.5,-288 149.5,-288 149.5,-288 155.5,-288 161.5,-294 161.5,-300 161.5,-300 161.5,-312 161.5,-312 161.5,-318 155.5,-324 149.5,-324"/>
<text text-anchor="middle" x="95" y="-309" font-family="sans" font-size="10.00">sample_sites</text>
<text text-anchor="middle" x="95" y="-298" font-family="sans" font-size="10.00">anal_name: test_anal_1</text>
</g>
<!-- 2&#45;&gt;1 -->
<g id="edge5" class="edge">
<title>2&#45;&gt;1</title>
<path fill="none" stroke="grey" stroke-width="2" d="M87.66,-287.56C83.55,-277.33 78.55,-264.08 75,-252 69,-231.57 64.05,-207.98 60.71,-190.22"/>
<polygon fill="grey" stroke="grey" stroke-width="2" points="64.13,-189.46 58.89,-180.25 57.24,-190.72 64.13,-189.46"/>
</g>
<!-- 5 -->
<g id="node6" class="node">
<title>5</title>
<path fill="none" stroke="#d8cb56" stroke-width="2" stroke-dasharray="5,2" d="M137.5,-252C137.5,-252 96.5,-252 96.5,-252 90.5,-252 84.5,-246 84.5,-240 84.5,-240 84.5,-228 84.5,-228 84.5,-222 90.5,-216 96.5,-216 96.5,-216 137.5,-216 137.5,-216 143.5,-216 149.5,-222 149.5,-228 149.5,-228 149.5,-240 149.5,-240 149.5,-246 143.5,-252 137.5,-252"/>
<text text-anchor="middle" x="117" y="-231.5" font-family="sans" font-size="10.00">filter_inds</text>
</g>
<!-- 2&#45;&gt;5 -->
<g id="edge9" class="edge">
<title>2&#45;&gt;5</title>
<path fill="none" stroke="grey" stroke-width="2" d="M100.44,-287.7C102.89,-279.9 105.84,-270.51 108.57,-261.83"/>
<polygon fill="grey" stroke="grey" stroke-width="2" points="111.96,-262.69 111.62,-252.1 105.29,-260.59 111.96,-262.69"/>
</g>
<!-- 3 -->
<g id="node4" class="node">
<title>3</title>
<path fill="none" stroke="#5692d8" stroke-width="2" stroke-dasharray="5,2" d="M211.5,-396C211.5,-396 128.5,-396 128.5,-396 122.5,-396 116.5,-390 116.5,-384 116.5,-384 116.5,-372 116.5,-372 116.5,-366 122.5,-360 128.5,-360 128.5,-360 211.5,-360 211.5,-360 217.5,-360 223.5,-366 223.5,-372 223.5,-372 223.5,-384 223.5,-384 223.5,-390 217.5,-396 211.5,-396"/>
<text text-anchor="middle" x="170" y="-375.5" font-family="sans" font-size="10.00">recap_and_mutate</text>
</g>
<!-- 3&#45;&gt;2 -->
<g id="edge7" class="edge">
<title>3&#45;&gt;2</title>
<path fill="none" stroke="grey" stroke-width="2" d="M151.46,-359.7C142.2,-351.05 130.84,-340.45 120.74,-331.03"/>
<polygon fill="grey" stroke="grey" stroke-width="2" points="123.02,-328.37 113.33,-324.1 118.25,-333.49 123.02,-328.37"/>
</g>
<!-- 7 -->
<g id="node8" class="node">
<title>7</title>
<path fill="none" stroke="#d85656" stroke-width="2" stroke-dasharray="5,2" d="M300.5,-324C300.5,-324 191.5,-324 191.5,-324 185.5,-324 179.5,-318 179.5,-312 179.5,-312 179.5,-300 179.5,-300 179.5,-294 185.5,-288 191.5,-288 191.5,-288 300.5,-288 300.5,-288 306.5,-288 312.5,-294 312.5,-300 312.5,-300 312.5,-312 312.5,-312 312.5,-318 306.5,-324 300.5,-324"/>
<text text-anchor="middle" x="246" y="-309" font-family="sans" font-size="10.00">sample_sites</text>
<text text-anchor="middle" x="246" y="-298" font-family="sans" font-size="10.00">anal_name: test_anal_2</text>
</g>
<!-- 3&#45;&gt;7 -->
<g id="edge12" class="edge">
<title>3&#45;&gt;7</title>
<path fill="none" stroke="grey" stroke-width="2" d="M188.79,-359.7C198.17,-351.05 209.68,-340.45 219.91,-331.03"/>
<polygon fill="grey" stroke="grey" stroke-width="2" points="222.45,-333.45 227.43,-324.1 217.7,-328.3 222.45,-333.45"/>
</g>
<!-- 4 -->
<g id="node5" class="node">
<title>4</title>
<path fill="none" stroke="#70d856" stroke-width="2" stroke-dasharray="5,2" d="M265,-473C265,-473 75,-473 75,-473 69,-473 63,-467 63,-461 63,-461 63,-444 63,-444 63,-438 69,-432 75,-432 75,-432 265,-432 265,-432 271,-432 277,-438 277,-444 277,-444 277,-461 277,-461 277,-467 271,-473 265,-473"/>
<text text-anchor="middle" x="170" y="-461" font-family="sans" font-size="10.00">simulate_admixture</text>
<text text-anchor="middle" x="170" y="-450" font-family="sans" font-size="10.00">model_name: AmericanAdmixture_4B11</text>
<text text-anchor="middle" x="170" y="-439" font-family="sans" font-size="10.00">sim_name: AA_42</text>
</g>
<!-- 4&#45;&gt;3 -->
<g id="edge8" class="edge">
<title>4&#45;&gt;3</title>
<path fill="none" stroke="grey" stroke-width="2" d="M170,-431.69C170,-423.91 170,-414.84 170,-406.45"/>
<polygon fill="grey" stroke="grey" stroke-width="2" points="173.5,-406.32 170,-396.32 166.5,-406.32 173.5,-406.32"/>
</g>
<!-- 5&#45;&gt;1 -->
<g id="edge6" class="edge">
<title>5&#45;&gt;1</title>
<path fill="none" stroke="grey" stroke-width="2" d="M101.92,-215.7C94.61,-207.3 85.69,-197.07 77.66,-187.86"/>
<polygon fill="grey" stroke="grey" stroke-width="2" points="80.11,-185.34 70.91,-180.1 74.84,-189.94 80.11,-185.34"/>
</g>
<!-- 5&#45;&gt;9 -->
<g id="edge14" class="edge">
<title>5&#45;&gt;9</title>
<path fill="none" stroke="grey" stroke-width="2" d="M119.05,-215.87C121.95,-191.67 127.27,-147.21 130.72,-118.39"/>
<polygon fill="grey" stroke="grey" stroke-width="2" points="134.23,-118.53 131.94,-108.19 127.28,-117.7 134.23,-118.53"/>
</g>
<!-- 6 -->
<g id="node7" class="node">
<title>6</title>
<path fill="none" stroke="#afd856" stroke-width="2" stroke-dasharray="5,2" d="M268,-180C268,-180 180,-180 180,-180 174,-180 168,-174 168,-168 168,-168 168,-156 168,-156 168,-150 174,-144 180,-144 180,-144 268,-144 268,-144 274,-144 280,-150 280,-156 280,-156 280,-168 280,-168 280,-174 274,-180 268,-180"/>
<text text-anchor="middle" x="224" y="-159.5" font-family="sans" font-size="10.00">true_local_ancestry</text>
</g>
<!-- 6&#45;&gt;0 -->
<g id="edge2" class="edge">
<title>6&#45;&gt;0</title>
<path fill="none" stroke="grey" stroke-width="2" d="M216.88,-143.87C206.74,-119.46 188.03,-74.43 176.07,-45.64"/>
<polygon fill="grey" stroke="grey" stroke-width="2" points="179.21,-44.08 172.14,-36.19 172.75,-46.77 179.21,-44.08"/>
</g>
<!-- 10 -->
<g id="node11" class="node">
<title>10</title>
<path fill="none" stroke="#56d8a9" stroke-width="2" stroke-dasharray="5,2" d="M279.5,-108C279.5,-108 236.5,-108 236.5,-108 230.5,-108 224.5,-102 224.5,-96 224.5,-96 224.5,-84 224.5,-84 224.5,-78 230.5,-72 236.5,-72 236.5,-72 279.5,-72 279.5,-72 285.5,-72 291.5,-78 291.5,-84 291.5,-84 291.5,-96 291.5,-96 291.5,-102 285.5,-108 279.5,-108"/>
<text text-anchor="middle" x="258" y="-87.5" font-family="sans" font-size="10.00">write_vcfs</text>
</g>
<!-- 6&#45;&gt;10 -->
<g id="edge17" class="edge">
<title>6&#45;&gt;10</title>
<path fill="none" stroke="grey" stroke-width="2" d="M232.4,-143.7C236.27,-135.73 240.95,-126.1 245.24,-117.26"/>
<polygon fill="grey" stroke="grey" stroke-width="2" points="248.47,-118.63 249.69,-108.1 242.17,-115.57 248.47,-118.63"/>
</g>
<!-- 7&#45;&gt;6 -->
<g id="edge10" class="edge">
<title>7&#45;&gt;6</title>
<path fill="none" stroke="grey" stroke-width="2" d="M243.35,-287.87C239.6,-263.67 232.71,-219.21 228.24,-190.39"/>
<polygon fill="grey" stroke="grey" stroke-width="2" points="231.65,-189.54 226.66,-180.19 224.74,-190.61 231.65,-189.54"/>
</g>
<!-- 8 -->
<g id="node9" class="node">
<title>8</title>
<path fill="none" stroke="#d8cb56" stroke-width="2" stroke-dasharray="5,2" d="M305.5,-252C305.5,-252 264.5,-252 264.5,-252 258.5,-252 252.5,-246 252.5,-240 252.5,-240 252.5,-228 252.5,-228 252.5,-222 258.5,-216 264.5,-216 264.5,-216 305.5,-216 305.5,-216 311.5,-216 317.5,-222 317.5,-228 317.5,-228 317.5,-240 317.5,-240 317.5,-246 311.5,-252 305.5,-252"/>
<text text-anchor="middle" x="285" y="-231.5" font-family="sans" font-size="10.00">filter_inds</text>
</g>
<!-- 7&#45;&gt;8 -->
<g id="edge13" class="edge">
<title>7&#45;&gt;8</title>
<path fill="none" stroke="grey" stroke-width="2" d="M255.64,-287.7C260.13,-279.64 265.56,-269.89 270.52,-260.98"/>
<polygon fill="grey" stroke="grey" stroke-width="2" points="273.66,-262.54 275.47,-252.1 267.55,-259.14 273.66,-262.54"/>
</g>
<!-- 8&#45;&gt;6 -->
<g id="edge11" class="edge">
<title>8&#45;&gt;6</title>
<path fill="none" stroke="grey" stroke-width="2" d="M269.92,-215.7C262.61,-207.3 253.69,-197.07 245.66,-187.86"/>
<polygon fill="grey" stroke="grey" stroke-width="2" points="248.11,-185.34 238.91,-180.1 242.84,-189.94 248.11,-185.34"/>
</g>
<!-- 8&#45;&gt;10 -->
<g id="edge16" class="edge">
<title>8&#45;&gt;10</title>
<path fill="none" stroke="grey" stroke-width="2" d="M288.81,-215.93C292.17,-197.76 295.59,-168.33 289,-144 286.42,-134.48 281.66,-124.92 276.62,-116.59"/>
<polygon fill="grey" stroke="grey" stroke-width="2" points="279.51,-114.6 271.15,-108.09 273.62,-118.39 279.51,-114.6"/>
</g>
<!-- 9&#45;&gt;0 -->
<g id="edge3" class="edge">
<title>9&#45;&gt;0</title>
<path fill="none" stroke="grey" stroke-width="2" d="M141.66,-71.7C145.19,-63.73 149.46,-54.1 153.37,-45.26"/>
<polygon fill="grey" stroke="grey" stroke-width="2" points="156.58,-46.67 157.43,-36.1 150.18,-43.83 156.58,-46.67"/>
</g>
<!-- 10&#45;&gt;0 -->
<g id="edge4" class="edge">
<title>10&#45;&gt;0</title>
<path fill="none" stroke="grey" stroke-width="2" d="M235.01,-71.7C223.19,-62.8 208.61,-51.82 195.82,-42.2"/>
<polygon fill="grey" stroke="grey" stroke-width="2" points="197.82,-39.32 187.72,-36.1 193.61,-44.91 197.82,-39.32"/>
</g>
</g>
</svg>
