<?xml version="1.0" encoding="UTF-8" standalone="no"?>
<!DOCTYPE svg PUBLIC "-//W3C//DTD SVG 1.1//EN"
 "http://www.w3.org/Graphics/SVG/1.1/DTD/svg11.dtd">
<!-- Generated by graphviz version 2.47.1 (20210511.0111)
 -->
<!-- Title: snakemake_dag Pages: 1 -->
<svg width="1224pt" height="769pt"
 viewBox="0.00 0.00 1223.50 769.00" xmlns="http://www.w3.org/2000/svg" xmlns:xlink="http://www.w3.org/1999/xlink">
<g id="graph0" class="graph" transform="scale(1 1) rotate(0) translate(4 765)">
<title>snakemake_dag</title>
<polygon fill="white" stroke="transparent" points="-4,4 -4,-765 1219.5,-765 1219.5,4 -4,4"/>
<!-- 0 -->
<g id="node1" class="node">
<title>0</title>
<path fill="none" stroke="#88d856" stroke-width="2" d="M619,-36C619,-36 589,-36 589,-36 583,-36 577,-30 577,-24 577,-24 577,-12 577,-12 577,-6 583,0 589,0 589,0 619,0 619,0 625,0 631,-6 631,-12 631,-12 631,-24 631,-24 631,-30 625,-36 619,-36"/>
<text text-anchor="middle" x="604" y="-15.5" font-family="sans" font-size="10.00">done</text>
</g>
<!-- 1 -->
<g id="node2" class="node">
<title>1</title>
<path fill="none" stroke="#56d88a" stroke-width="2" stroke-dasharray="5,2" d="M431,-180C431,-180 381,-180 381,-180 375,-180 369,-174 369,-168 369,-168 369,-156 369,-156 369,-150 375,-144 381,-144 381,-144 431,-144 431,-144 437,-144 443,-150 443,-156 443,-156 443,-168 443,-168 443,-174 437,-180 431,-180"/>
<text text-anchor="middle" x="406" y="-159.5" font-family="sans" font-size="10.00">run_RFMix2</text>
</g>
<!-- 1&#45;&gt;0 -->
<g id="edge1" class="edge">
<title>1&#45;&gt;0</title>
<path fill="none" stroke="grey" stroke-width="2" d="M423.68,-143.73C443.5,-124.87 477.06,-94.36 509,-72 527.58,-59 549.63,-46.53 567.8,-36.96"/>
<polygon fill="grey" stroke="grey" stroke-width="2" points="569.65,-39.94 576.92,-32.23 566.43,-33.73 569.65,-39.94"/>
</g>
<!-- 2 -->
<g id="node3" class="node">
<title>2</title>
<path fill="none" stroke="#56a2d8" stroke-width="2" stroke-dasharray="5,2" d="M284.5,-252C284.5,-252 237.5,-252 237.5,-252 231.5,-252 225.5,-246 225.5,-240 225.5,-240 225.5,-228 225.5,-228 225.5,-222 231.5,-216 237.5,-216 237.5,-216 284.5,-216 284.5,-216 290.5,-216 296.5,-222 296.5,-228 296.5,-228 296.5,-240 296.5,-240 296.5,-246 290.5,-252 284.5,-252"/>
<text text-anchor="middle" x="261" y="-231.5" font-family="sans" font-size="10.00">run_beagle</text>
</g>
<!-- 2&#45;&gt;1 -->
<g id="edge7" class="edge">
<title>2&#45;&gt;1</title>
<path fill="none" stroke="grey" stroke-width="2" d="M296.47,-215.88C316.12,-206.39 340.72,-194.51 361.63,-184.42"/>
<polygon fill="grey" stroke="grey" stroke-width="2" points="363.16,-187.57 370.64,-180.07 360.12,-181.26 363.16,-187.57"/>
</g>
<!-- 26 -->
<g id="node27" class="node">
<title>26</title>
<path fill="none" stroke="#56d8a2" stroke-width="2" d="M306,-180C306,-180 216,-180 216,-180 210,-180 204,-174 204,-168 204,-168 204,-156 204,-156 204,-150 210,-144 216,-144 216,-144 306,-144 306,-144 312,-144 318,-150 318,-156 318,-156 318,-168 318,-168 318,-174 312,-180 306,-180"/>
<text text-anchor="middle" x="261" y="-159.5" font-family="sans" font-size="10.00">make_mosaic_input</text>
</g>
<!-- 2&#45;&gt;26 -->
<g id="edge44" class="edge">
<title>2&#45;&gt;26</title>
<path fill="none" stroke="grey" stroke-width="2" d="M261,-215.7C261,-207.98 261,-198.71 261,-190.11"/>
<polygon fill="grey" stroke="grey" stroke-width="2" points="264.5,-190.1 261,-180.1 257.5,-190.1 264.5,-190.1"/>
</g>
<!-- 3 -->
<g id="node4" class="node">
<title>3</title>
<path fill="none" stroke="#d8bc56" stroke-width="2" stroke-dasharray="5,2" d="M200,-324C200,-324 78,-324 78,-324 72,-324 66,-318 66,-312 66,-312 66,-300 66,-300 66,-294 72,-288 78,-288 78,-288 200,-288 200,-288 206,-288 212,-294 212,-300 212,-300 212,-312 212,-312 212,-318 206,-324 200,-324"/>
<text text-anchor="middle" x="139" y="-309" font-family="sans" font-size="10.00">split_vcf</text>
<text text-anchor="middle" x="139" y="-298" font-family="sans" font-size="10.00">sample_group: target_inds</text>
</g>
<!-- 3&#45;&gt;2 -->
<g id="edge10" class="edge">
<title>3&#45;&gt;2</title>
<path fill="none" stroke="grey" stroke-width="2" d="M168.84,-287.88C184.94,-278.64 205,-267.13 222.29,-257.21"/>
<polygon fill="grey" stroke="grey" stroke-width="2" points="224.11,-260.2 231.04,-252.19 220.63,-254.13 224.11,-260.2"/>
</g>
<!-- 4 -->
<g id="node5" class="node">
<title>4</title>
<path fill="none" stroke="#d85656" stroke-width="2" stroke-dasharray="5,2" d="M316.5,-396C316.5,-396 273.5,-396 273.5,-396 267.5,-396 261.5,-390 261.5,-384 261.5,-384 261.5,-372 261.5,-372 261.5,-366 267.5,-360 273.5,-360 273.5,-360 316.5,-360 316.5,-360 322.5,-360 328.5,-366 328.5,-372 328.5,-372 328.5,-384 328.5,-384 328.5,-390 322.5,-396 316.5,-396"/>
<text text-anchor="middle" x="295" y="-375.5" font-family="sans" font-size="10.00">write_vcfs</text>
</g>
<!-- 4&#45;&gt;1 -->
<g id="edge9" class="edge">
<title>4&#45;&gt;1</title>
<path fill="none" stroke="grey" stroke-width="2" d="M328.82,-375.35C363.48,-371.64 415.77,-359.99 441,-324 469.66,-283.1 442.95,-223.11 423.06,-189.08"/>
<polygon fill="grey" stroke="grey" stroke-width="2" points="425.86,-186.95 417.69,-180.21 419.88,-190.58 425.86,-186.95"/>
</g>
<!-- 4&#45;&gt;2 -->
<g id="edge12" class="edge">
<title>4&#45;&gt;2</title>
<path fill="none" stroke="grey" stroke-width="2" d="M279.39,-359.77C271.63,-350.03 263.05,-337.18 259,-324 252.84,-303.97 253.77,-280.18 256,-262.24"/>
<polygon fill="grey" stroke="grey" stroke-width="2" points="259.49,-262.57 257.47,-252.17 252.56,-261.56 259.49,-262.57"/>
</g>
<!-- 4&#45;&gt;3 -->
<g id="edge13" class="edge">
<title>4&#45;&gt;3</title>
<path fill="none" stroke="grey" stroke-width="2" d="M261.15,-361.81C239.24,-351.98 210.39,-339.03 186.23,-328.19"/>
<polygon fill="grey" stroke="grey" stroke-width="2" points="187.45,-324.9 176.89,-324 184.58,-331.29 187.45,-324.9"/>
</g>
<!-- 10 -->
<g id="node11" class="node">
<title>10</title>
<path fill="none" stroke="#d8bc56" stroke-width="2" stroke-dasharray="5,2" d="M420,-324C420,-324 280,-324 280,-324 274,-324 268,-318 268,-312 268,-312 268,-300 268,-300 268,-294 274,-288 280,-288 280,-288 420,-288 420,-288 426,-288 432,-294 432,-300 432,-300 432,-312 432,-312 432,-318 426,-324 420,-324"/>
<text text-anchor="middle" x="350" y="-309" font-family="sans" font-size="10.00">split_vcf</text>
<text text-anchor="middle" x="350" y="-298" font-family="sans" font-size="10.00">sample_group: reference_inds</text>
</g>
<!-- 4&#45;&gt;10 -->
<g id="edge21" class="edge">
<title>4&#45;&gt;10</title>
<path fill="none" stroke="grey" stroke-width="2" d="M308.6,-359.7C315.12,-351.39 323.07,-341.28 330.25,-332.14"/>
<polygon fill="grey" stroke="grey" stroke-width="2" points="333.13,-334.13 336.56,-324.1 327.63,-329.81 333.13,-334.13"/>
</g>
<!-- 22 -->
<g id="node23" class="node">
<title>22</title>
<path fill="none" stroke="#a7d856" stroke-width="2" stroke-dasharray="5,2" d="M581.5,-324C581.5,-324 500.5,-324 500.5,-324 494.5,-324 488.5,-318 488.5,-312 488.5,-312 488.5,-300 488.5,-300 488.5,-294 494.5,-288 500.5,-288 500.5,-288 581.5,-288 581.5,-288 587.5,-288 593.5,-294 593.5,-300 593.5,-300 593.5,-312 593.5,-312 593.5,-318 587.5,-324 581.5,-324"/>
<text text-anchor="middle" x="541" y="-303.5" font-family="sans" font-size="10.00">make_rfmix_input</text>
</g>
<!-- 4&#45;&gt;22 -->
<g id="edge39" class="edge">
<title>4&#45;&gt;22</title>
<path fill="none" stroke="grey" stroke-width="2" d="M328.69,-367.41C367.14,-356.47 430.86,-338.34 478.48,-324.79"/>
<polygon fill="grey" stroke="grey" stroke-width="2" points="479.72,-328.08 488.38,-321.97 477.8,-321.34 479.72,-328.08"/>
</g>
<!-- 4&#45;&gt;26 -->
<g id="edge46" class="edge">
<title>4&#45;&gt;26</title>
<path fill="none" stroke="grey" stroke-width="2" d="M261.19,-374.54C201.7,-369.45 82.22,-355.46 57,-324 8.08,-262.99 118.93,-210.78 195.62,-183.43"/>
<polygon fill="grey" stroke="grey" stroke-width="2" points="196.98,-186.67 205.26,-180.06 194.66,-180.06 196.98,-186.67"/>
</g>
<!-- 5 -->
<g id="node6" class="node">
<title>5</title>
<path fill="none" stroke="#5673d8" stroke-width="2" stroke-dasharray="5,2" d="M297,-468C297,-468 209,-468 209,-468 203,-468 197,-462 197,-456 197,-456 197,-444 197,-444 197,-438 203,-432 209,-432 209,-432 297,-432 297,-432 303,-432 309,-438 309,-444 309,-444 309,-456 309,-456 309,-462 303,-468 297,-468"/>
<text text-anchor="middle" x="253" y="-447.5" font-family="sans" font-size="10.00">true_local_ancestry</text>
</g>
<!-- 5&#45;&gt;4 -->
<g id="edge14" class="edge">
<title>5&#45;&gt;4</title>
<path fill="none" stroke="grey" stroke-width="2" d="M263.38,-431.7C268.26,-423.56 274.19,-413.69 279.58,-404.7"/>
<polygon fill="grey" stroke="grey" stroke-width="2" points="282.59,-406.48 284.74,-396.1 276.59,-402.88 282.59,-406.48"/>
</g>
<!-- 6 -->
<g id="node7" class="node">
<title>6</title>
<path fill="none" stroke="#59d856" stroke-width="2" stroke-dasharray="5,2" d="M338.5,-612C338.5,-612 229.5,-612 229.5,-612 223.5,-612 217.5,-606 217.5,-600 217.5,-600 217.5,-588 217.5,-588 217.5,-582 223.5,-576 229.5,-576 229.5,-576 338.5,-576 338.5,-576 344.5,-576 350.5,-582 350.5,-588 350.5,-588 350.5,-600 350.5,-600 350.5,-606 344.5,-612 338.5,-612"/>
<text text-anchor="middle" x="284" y="-597" font-family="sans" font-size="10.00">sample_sites</text>
<text text-anchor="middle" x="284" y="-586" font-family="sans" font-size="10.00">anal_name: test_anal_1</text>
</g>
<!-- 6&#45;&gt;5 -->
<g id="edge16" class="edge">
<title>6&#45;&gt;5</title>
<path fill="none" stroke="grey" stroke-width="2" d="M280.06,-575.83C277.69,-565.46 274.63,-551.98 272,-540 267.45,-519.3 262.45,-495.85 258.72,-478.22"/>
<polygon fill="grey" stroke="grey" stroke-width="2" points="262.07,-477.14 256.58,-468.08 255.22,-478.58 262.07,-477.14"/>
</g>
<!-- 9 -->
<g id="node10" class="node">
<title>9</title>
<path fill="none" stroke="#56c1d8" stroke-width="2" stroke-dasharray="5,2" d="M334.5,-540C334.5,-540 293.5,-540 293.5,-540 287.5,-540 281.5,-534 281.5,-528 281.5,-528 281.5,-516 281.5,-516 281.5,-510 287.5,-504 293.5,-504 293.5,-504 334.5,-504 334.5,-504 340.5,-504 346.5,-510 346.5,-516 346.5,-516 346.5,-528 346.5,-528 346.5,-534 340.5,-540 334.5,-540"/>
<text text-anchor="middle" x="314" y="-519.5" font-family="sans" font-size="10.00">filter_inds</text>
</g>
<!-- 6&#45;&gt;9 -->
<g id="edge20" class="edge">
<title>6&#45;&gt;9</title>
<path fill="none" stroke="grey" stroke-width="2" d="M291.42,-575.7C294.79,-567.81 298.87,-558.3 302.62,-549.55"/>
<polygon fill="grey" stroke="grey" stroke-width="2" points="305.95,-550.67 306.67,-540.1 299.51,-547.92 305.95,-550.67"/>
</g>
<!-- 7 -->
<g id="node8" class="node">
<title>7</title>
<path fill="none" stroke="#56d873" stroke-width="2" stroke-dasharray="5,2" d="M325.5,-684C325.5,-684 242.5,-684 242.5,-684 236.5,-684 230.5,-678 230.5,-672 230.5,-672 230.5,-660 230.5,-660 230.5,-654 236.5,-648 242.5,-648 242.5,-648 325.5,-648 325.5,-648 331.5,-648 337.5,-654 337.5,-660 337.5,-660 337.5,-672 337.5,-672 337.5,-678 331.5,-684 325.5,-684"/>
<text text-anchor="middle" x="284" y="-663.5" font-family="sans" font-size="10.00">recap_and_mutate</text>
</g>
<!-- 7&#45;&gt;6 -->
<g id="edge18" class="edge">
<title>7&#45;&gt;6</title>
<path fill="none" stroke="grey" stroke-width="2" d="M284,-647.7C284,-639.98 284,-630.71 284,-622.11"/>
<polygon fill="grey" stroke="grey" stroke-width="2" points="287.5,-622.1 284,-612.1 280.5,-622.1 287.5,-622.1"/>
</g>
<!-- 8 -->
<g id="node9" class="node">
<title>8</title>
<path fill="none" stroke="#d6d856" stroke-width="2" stroke-dasharray="5,2" d="M379,-761C379,-761 189,-761 189,-761 183,-761 177,-755 177,-749 177,-749 177,-732 177,-732 177,-726 183,-720 189,-720 189,-720 379,-720 379,-720 385,-720 391,-726 391,-732 391,-732 391,-749 391,-749 391,-755 385,-761 379,-761"/>
<text text-anchor="middle" x="284" y="-749" font-family="sans" font-size="10.00">simulate_admixture</text>
<text text-anchor="middle" x="284" y="-738" font-family="sans" font-size="10.00">model_name: AmericanAdmixture_4B11</text>
<text text-anchor="middle" x="284" y="-727" font-family="sans" font-size="10.00">sim_name: AA_42</text>
</g>
<!-- 8&#45;&gt;7 -->
<g id="edge19" class="edge">
<title>8&#45;&gt;7</title>
<path fill="none" stroke="grey" stroke-width="2" d="M284,-719.69C284,-711.91 284,-702.84 284,-694.45"/>
<polygon fill="grey" stroke="grey" stroke-width="2" points="287.5,-694.32 284,-684.32 280.5,-694.32 287.5,-694.32"/>
</g>
<!-- 9&#45;&gt;4 -->
<g id="edge15" class="edge">
<title>9&#45;&gt;4</title>
<path fill="none" stroke="grey" stroke-width="2" d="M317.28,-503.74C320.14,-485.66 323.09,-456.53 318,-432 316.12,-422.96 312.63,-413.58 308.91,-405.26"/>
<polygon fill="grey" stroke="grey" stroke-width="2" points="312,-403.6 304.54,-396.07 305.68,-406.61 312,-403.6"/>
</g>
<!-- 9&#45;&gt;5 -->
<g id="edge17" class="edge">
<title>9&#45;&gt;5</title>
<path fill="none" stroke="grey" stroke-width="2" d="M298.92,-503.7C291.61,-495.3 282.69,-485.07 274.66,-475.86"/>
<polygon fill="grey" stroke="grey" stroke-width="2" points="277.11,-473.34 267.91,-468.1 271.84,-477.94 277.11,-473.34"/>
</g>
<!-- 9&#45;&gt;22 -->
<g id="edge38" class="edge">
<title>9&#45;&gt;22</title>
<path fill="none" stroke="grey" stroke-width="2" d="M332.19,-503.85C372.37,-465.97 468.79,-375.08 515.19,-331.33"/>
<polygon fill="grey" stroke="grey" stroke-width="2" points="517.85,-333.64 522.72,-324.23 513.04,-328.55 517.85,-333.64"/>
</g>
<!-- 9&#45;&gt;26 -->
<g id="edge47" class="edge">
<title>9&#45;&gt;26</title>
<path fill="none" stroke="grey" stroke-width="2" d="M281.29,-520.93C200.86,-518.88 0,-501.5 0,-379 0,-379 0,-379 0,-305 0,-216.88 116.22,-183.13 193.56,-170.43"/>
<polygon fill="grey" stroke="grey" stroke-width="2" points="194.38,-173.85 203.72,-168.85 193.3,-166.93 194.38,-173.85"/>
</g>
<!-- 10&#45;&gt;1 -->
<g id="edge8" class="edge">
<title>10&#45;&gt;1</title>
<path fill="none" stroke="grey" stroke-width="2" d="M356.75,-287.87C366.38,-263.46 384.14,-218.43 395.5,-189.64"/>
<polygon fill="grey" stroke="grey" stroke-width="2" points="398.81,-190.78 399.22,-180.19 392.3,-188.21 398.81,-190.78"/>
</g>
<!-- 10&#45;&gt;2 -->
<g id="edge11" class="edge">
<title>10&#45;&gt;2</title>
<path fill="none" stroke="grey" stroke-width="2" d="M328,-287.7C316.79,-278.88 303,-268.03 290.85,-258.47"/>
<polygon fill="grey" stroke="grey" stroke-width="2" points="292.77,-255.54 282.75,-252.1 288.44,-261.04 292.77,-255.54"/>
</g>
<!-- 10&#45;&gt;26 -->
<g id="edge45" class="edge">
<title>10&#45;&gt;26</title>
<path fill="none" stroke="grey" stroke-width="2" d="M342.78,-287.98C334.66,-269.59 320.57,-239.74 305,-216 298.74,-206.45 291.03,-196.65 283.82,-188.12"/>
<polygon fill="grey" stroke="grey" stroke-width="2" points="286.31,-185.65 277.12,-180.37 281.01,-190.23 286.31,-185.65"/>
</g>
<!-- 11 -->
<g id="node12" class="node">
<title>11</title>
<path fill="none" stroke="#56d88a" stroke-width="2" stroke-dasharray="5,2" d="M940,-180C940,-180 890,-180 890,-180 884,-180 878,-174 878,-168 878,-168 878,-156 878,-156 878,-150 884,-144 890,-144 890,-144 940,-144 940,-144 946,-144 952,-150 952,-156 952,-156 952,-168 952,-168 952,-174 946,-180 940,-180"/>
<text text-anchor="middle" x="915" y="-159.5" font-family="sans" font-size="10.00">run_RFMix2</text>
</g>
<!-- 11&#45;&gt;0 -->
<g id="edge2" class="edge">
<title>11&#45;&gt;0</title>
<path fill="none" stroke="grey" stroke-width="2" d="M877.8,-144.01C817.77,-116.61 700.29,-62.96 640.63,-35.73"/>
<polygon fill="grey" stroke="grey" stroke-width="2" points="641.78,-32.4 631.23,-31.43 638.87,-38.77 641.78,-32.4"/>
</g>
<!-- 12 -->
<g id="node13" class="node">
<title>12</title>
<path fill="none" stroke="#56a2d8" stroke-width="2" stroke-dasharray="5,2" d="M885.5,-252C885.5,-252 838.5,-252 838.5,-252 832.5,-252 826.5,-246 826.5,-240 826.5,-240 826.5,-228 826.5,-228 826.5,-222 832.5,-216 838.5,-216 838.5,-216 885.5,-216 885.5,-216 891.5,-216 897.5,-222 897.5,-228 897.5,-228 897.5,-240 897.5,-240 897.5,-246 891.5,-252 885.5,-252"/>
<text text-anchor="middle" x="862" y="-231.5" font-family="sans" font-size="10.00">run_beagle</text>
</g>
<!-- 12&#45;&gt;11 -->
<g id="edge22" class="edge">
<title>12&#45;&gt;11</title>
<path fill="none" stroke="grey" stroke-width="2" d="M875.1,-215.7C881.39,-207.39 889.05,-197.28 895.96,-188.14"/>
<polygon fill="grey" stroke="grey" stroke-width="2" points="898.8,-190.19 902.05,-180.1 893.22,-185.96 898.8,-190.19"/>
</g>
<!-- 28 -->
<g id="node29" class="node">
<title>28</title>
<path fill="none" stroke="#56d8a2" stroke-width="2" d="M705,-180C705,-180 615,-180 615,-180 609,-180 603,-174 603,-168 603,-168 603,-156 603,-156 603,-150 609,-144 615,-144 615,-144 705,-144 705,-144 711,-144 717,-150 717,-156 717,-156 717,-168 717,-168 717,-174 711,-180 705,-180"/>
<text text-anchor="middle" x="660" y="-159.5" font-family="sans" font-size="10.00">make_mosaic_input</text>
</g>
<!-- 12&#45;&gt;28 -->
<g id="edge49" class="edge">
<title>12&#45;&gt;28</title>
<path fill="none" stroke="grey" stroke-width="2" d="M826.35,-220.65C796.64,-210.35 753.7,-195.47 718.89,-183.41"/>
<polygon fill="grey" stroke="grey" stroke-width="2" points="719.9,-180.05 709.31,-180.09 717.61,-186.67 719.9,-180.05"/>
</g>
<!-- 13 -->
<g id="node14" class="node">
<title>13</title>
<path fill="none" stroke="#d8bc56" stroke-width="2" stroke-dasharray="5,2" d="M822,-324C822,-324 700,-324 700,-324 694,-324 688,-318 688,-312 688,-312 688,-300 688,-300 688,-294 694,-288 700,-288 700,-288 822,-288 822,-288 828,-288 834,-294 834,-300 834,-300 834,-312 834,-312 834,-318 828,-324 822,-324"/>
<text text-anchor="middle" x="761" y="-309" font-family="sans" font-size="10.00">split_vcf</text>
<text text-anchor="middle" x="761" y="-298" font-family="sans" font-size="10.00">sample_group: target_inds</text>
</g>
<!-- 13&#45;&gt;12 -->
<g id="edge25" class="edge">
<title>13&#45;&gt;12</title>
<path fill="none" stroke="grey" stroke-width="2" d="M785.71,-287.88C798.67,-278.89 814.73,-267.76 828.77,-258.03"/>
<polygon fill="grey" stroke="grey" stroke-width="2" points="830.97,-260.76 837.2,-252.19 826.98,-255.01 830.97,-260.76"/>
</g>
<!-- 14 -->
<g id="node15" class="node">
<title>14</title>
<path fill="none" stroke="#d85656" stroke-width="2" stroke-dasharray="5,2" d="M938.5,-396C938.5,-396 895.5,-396 895.5,-396 889.5,-396 883.5,-390 883.5,-384 883.5,-384 883.5,-372 883.5,-372 883.5,-366 889.5,-360 895.5,-360 895.5,-360 938.5,-360 938.5,-360 944.5,-360 950.5,-366 950.5,-372 950.5,-372 950.5,-384 950.5,-384 950.5,-390 944.5,-396 938.5,-396"/>
<text text-anchor="middle" x="917" y="-375.5" font-family="sans" font-size="10.00">write_vcfs</text>
</g>
<!-- 14&#45;&gt;11 -->
<g id="edge24" class="edge">
<title>14&#45;&gt;11</title>
<path fill="none" stroke="grey" stroke-width="2" d="M950.82,-375.35C985.48,-371.64 1037.77,-359.99 1063,-324 1101.19,-269.51 1017.74,-214.18 961.29,-184.69"/>
<polygon fill="grey" stroke="grey" stroke-width="2" points="962.64,-181.45 952.14,-180.01 959.45,-187.68 962.64,-181.45"/>
</g>
<!-- 14&#45;&gt;12 -->
<g id="edge27" class="edge">
<title>14&#45;&gt;12</title>
<path fill="none" stroke="grey" stroke-width="2" d="M902.84,-359.85C895.31,-349.93 886.5,-336.89 881,-324 872.59,-304.29 867.76,-280.49 865.07,-262.46"/>
<polygon fill="grey" stroke="grey" stroke-width="2" points="868.51,-261.76 863.7,-252.33 861.57,-262.71 868.51,-261.76"/>
</g>
<!-- 14&#45;&gt;13 -->
<g id="edge28" class="edge">
<title>14&#45;&gt;13</title>
<path fill="none" stroke="grey" stroke-width="2" d="M883.15,-361.81C861.24,-351.98 832.39,-339.03 808.23,-328.19"/>
<polygon fill="grey" stroke="grey" stroke-width="2" points="809.45,-324.9 798.89,-324 806.58,-331.29 809.45,-324.9"/>
</g>
<!-- 20 -->
<g id="node21" class="node">
<title>20</title>
<path fill="none" stroke="#d8bc56" stroke-width="2" stroke-dasharray="5,2" d="M1042,-324C1042,-324 902,-324 902,-324 896,-324 890,-318 890,-312 890,-312 890,-300 890,-300 890,-294 896,-288 902,-288 902,-288 1042,-288 1042,-288 1048,-288 1054,-294 1054,-300 1054,-300 1054,-312 1054,-312 1054,-318 1048,-324 1042,-324"/>
<text text-anchor="middle" x="972" y="-309" font-family="sans" font-size="10.00">split_vcf</text>
<text text-anchor="middle" x="972" y="-298" font-family="sans" font-size="10.00">sample_group: reference_inds</text>
</g>
<!-- 14&#45;&gt;20 -->
<g id="edge36" class="edge">
<title>14&#45;&gt;20</title>
<path fill="none" stroke="grey" stroke-width="2" d="M930.6,-359.7C937.12,-351.39 945.07,-341.28 952.25,-332.14"/>
<polygon fill="grey" stroke="grey" stroke-width="2" points="955.13,-334.13 958.56,-324.1 949.63,-329.81 955.13,-334.13"/>
</g>
<!-- 24 -->
<g id="node25" class="node">
<title>24</title>
<path fill="none" stroke="#a7d856" stroke-width="2" stroke-dasharray="5,2" d="M1203.5,-324C1203.5,-324 1122.5,-324 1122.5,-324 1116.5,-324 1110.5,-318 1110.5,-312 1110.5,-312 1110.5,-300 1110.5,-300 1110.5,-294 1116.5,-288 1122.5,-288 1122.5,-288 1203.5,-288 1203.5,-288 1209.5,-288 1215.5,-294 1215.5,-300 1215.5,-300 1215.5,-312 1215.5,-312 1215.5,-318 1209.5,-324 1203.5,-324"/>
<text text-anchor="middle" x="1163" y="-303.5" font-family="sans" font-size="10.00">make_rfmix_input</text>
</g>
<!-- 14&#45;&gt;24 -->
<g id="edge42" class="edge">
<title>14&#45;&gt;24</title>
<path fill="none" stroke="grey" stroke-width="2" d="M950.69,-367.41C989.14,-356.47 1052.86,-338.34 1100.48,-324.79"/>
<polygon fill="grey" stroke="grey" stroke-width="2" points="1101.72,-328.08 1110.38,-321.97 1099.8,-321.34 1101.72,-328.08"/>
</g>
<!-- 14&#45;&gt;28 -->
<g id="edge51" class="edge">
<title>14&#45;&gt;28</title>
<path fill="none" stroke="grey" stroke-width="2" d="M883.07,-374.2C824,-368.58 705.96,-353.84 679,-324 646,-287.47 649.23,-225.7 654.58,-190.23"/>
<polygon fill="grey" stroke="grey" stroke-width="2" points="658.07,-190.57 656.27,-180.13 651.17,-189.41 658.07,-190.57"/>
</g>
<!-- 15 -->
<g id="node16" class="node">
<title>15</title>
<path fill="none" stroke="#5673d8" stroke-width="2" stroke-dasharray="5,2" d="M889,-468C889,-468 801,-468 801,-468 795,-468 789,-462 789,-456 789,-456 789,-444 789,-444 789,-438 795,-432 801,-432 801,-432 889,-432 889,-432 895,-432 901,-438 901,-444 901,-444 901,-456 901,-456 901,-462 895,-468 889,-468"/>
<text text-anchor="middle" x="845" y="-447.5" font-family="sans" font-size="10.00">true_local_ancestry</text>
</g>
<!-- 15&#45;&gt;14 -->
<g id="edge29" class="edge">
<title>15&#45;&gt;14</title>
<path fill="none" stroke="grey" stroke-width="2" d="M862.8,-431.7C871.6,-423.14 882.38,-412.66 892,-403.3"/>
<polygon fill="grey" stroke="grey" stroke-width="2" points="894.68,-405.58 899.41,-396.1 889.8,-400.57 894.68,-405.58"/>
</g>
<!-- 16 -->
<g id="node17" class="node">
<title>16</title>
<path fill="none" stroke="#59d856" stroke-width="2" stroke-dasharray="5,2" d="M929.5,-612C929.5,-612 820.5,-612 820.5,-612 814.5,-612 808.5,-606 808.5,-600 808.5,-600 808.5,-588 808.5,-588 808.5,-582 814.5,-576 820.5,-576 820.5,-576 929.5,-576 929.5,-576 935.5,-576 941.5,-582 941.5,-588 941.5,-588 941.5,-600 941.5,-600 941.5,-606 935.5,-612 929.5,-612"/>
<text text-anchor="middle" x="875" y="-597" font-family="sans" font-size="10.00">sample_sites</text>
<text text-anchor="middle" x="875" y="-586" font-family="sans" font-size="10.00">anal_name: test_anal_2</text>
</g>
<!-- 16&#45;&gt;15 -->
<g id="edge31" class="edge">
<title>16&#45;&gt;15</title>
<path fill="none" stroke="grey" stroke-width="2" d="M871.38,-575.87C866.25,-551.56 856.79,-506.82 850.71,-478.01"/>
<polygon fill="grey" stroke="grey" stroke-width="2" points="854.12,-477.25 848.63,-468.19 847.27,-478.7 854.12,-477.25"/>
</g>
<!-- 19 -->
<g id="node20" class="node">
<title>19</title>
<path fill="none" stroke="#56c1d8" stroke-width="2" stroke-dasharray="5,2" d="M926.5,-540C926.5,-540 885.5,-540 885.5,-540 879.5,-540 873.5,-534 873.5,-528 873.5,-528 873.5,-516 873.5,-516 873.5,-510 879.5,-504 885.5,-504 885.5,-504 926.5,-504 926.5,-504 932.5,-504 938.5,-510 938.5,-516 938.5,-516 938.5,-528 938.5,-528 938.5,-534 932.5,-540 926.5,-540"/>
<text text-anchor="middle" x="906" y="-519.5" font-family="sans" font-size="10.00">filter_inds</text>
</g>
<!-- 16&#45;&gt;19 -->
<g id="edge35" class="edge">
<title>16&#45;&gt;19</title>
<path fill="none" stroke="grey" stroke-width="2" d="M882.66,-575.7C886.19,-567.73 890.46,-558.1 894.37,-549.26"/>
<polygon fill="grey" stroke="grey" stroke-width="2" points="897.58,-550.67 898.43,-540.1 891.18,-547.83 897.58,-550.67"/>
</g>
<!-- 17 -->
<g id="node18" class="node">
<title>17</title>
<path fill="none" stroke="#56d873" stroke-width="2" stroke-dasharray="5,2" d="M916.5,-684C916.5,-684 833.5,-684 833.5,-684 827.5,-684 821.5,-678 821.5,-672 821.5,-672 821.5,-660 821.5,-660 821.5,-654 827.5,-648 833.5,-648 833.5,-648 916.5,-648 916.5,-648 922.5,-648 928.5,-654 928.5,-660 928.5,-660 928.5,-672 928.5,-672 928.5,-678 922.5,-684 916.5,-684"/>
<text text-anchor="middle" x="875" y="-663.5" font-family="sans" font-size="10.00">recap_and_mutate</text>
</g>
<!-- 17&#45;&gt;16 -->
<g id="edge33" class="edge">
<title>17&#45;&gt;16</title>
<path fill="none" stroke="grey" stroke-width="2" d="M875,-647.7C875,-639.98 875,-630.71 875,-622.11"/>
<polygon fill="grey" stroke="grey" stroke-width="2" points="878.5,-622.1 875,-612.1 871.5,-622.1 878.5,-622.1"/>
</g>
<!-- 18 -->
<g id="node19" class="node">
<title>18</title>
<path fill="none" stroke="#d6d856" stroke-width="2" stroke-dasharray="5,2" d="M970,-761C970,-761 780,-761 780,-761 774,-761 768,-755 768,-749 768,-749 768,-732 768,-732 768,-726 774,-720 780,-720 780,-720 970,-720 970,-720 976,-720 982,-726 982,-732 982,-732 982,-749 982,-749 982,-755 976,-761 970,-761"/>
<text text-anchor="middle" x="875" y="-749" font-family="sans" font-size="10.00">simulate_admixture</text>
<text text-anchor="middle" x="875" y="-738" font-family="sans" font-size="10.00">model_name: AmericanAdmixture_4B11</text>
<text text-anchor="middle" x="875" y="-727" font-family="sans" font-size="10.00">sim_name: AA_52</text>
</g>
<!-- 18&#45;&gt;17 -->
<g id="edge34" class="edge">
<title>18&#45;&gt;17</title>
<path fill="none" stroke="grey" stroke-width="2" d="M875,-719.69C875,-711.91 875,-702.84 875,-694.45"/>
<polygon fill="grey" stroke="grey" stroke-width="2" points="878.5,-694.32 875,-684.32 871.5,-694.32 878.5,-694.32"/>
</g>
<!-- 19&#45;&gt;14 -->
<g id="edge30" class="edge">
<title>19&#45;&gt;14</title>
<path fill="none" stroke="grey" stroke-width="2" d="M907.33,-503.87C909.2,-479.67 912.65,-435.21 914.88,-406.39"/>
<polygon fill="grey" stroke="grey" stroke-width="2" points="918.39,-406.43 915.67,-396.19 911.41,-405.89 918.39,-406.43"/>
</g>
<!-- 19&#45;&gt;15 -->
<g id="edge32" class="edge">
<title>19&#45;&gt;15</title>
<path fill="none" stroke="grey" stroke-width="2" d="M890.92,-503.7C883.61,-495.3 874.69,-485.07 866.66,-475.86"/>
<polygon fill="grey" stroke="grey" stroke-width="2" points="869.11,-473.34 859.91,-468.1 863.84,-477.94 869.11,-473.34"/>
</g>
<!-- 19&#45;&gt;24 -->
<g id="edge41" class="edge">
<title>19&#45;&gt;24</title>
<path fill="none" stroke="grey" stroke-width="2" d="M926.6,-503.85C972.27,-465.81 1082.15,-374.32 1134.43,-330.79"/>
<polygon fill="grey" stroke="grey" stroke-width="2" points="1136.86,-333.32 1142.3,-324.23 1132.38,-327.94 1136.86,-333.32"/>
</g>
<!-- 19&#45;&gt;28 -->
<g id="edge52" class="edge">
<title>19&#45;&gt;28</title>
<path fill="none" stroke="grey" stroke-width="2" d="M873.42,-519.57C798.82,-514.39 622,-490.35 622,-379 622,-379 622,-379 622,-305 622,-263.63 637.23,-217.72 648.41,-189.61"/>
<polygon fill="grey" stroke="grey" stroke-width="2" points="651.76,-190.67 652.31,-180.09 645.28,-188.02 651.76,-190.67"/>
</g>
<!-- 20&#45;&gt;11 -->
<g id="edge23" class="edge">
<title>20&#45;&gt;11</title>
<path fill="none" stroke="grey" stroke-width="2" d="M967.08,-288C961.65,-269.88 952.3,-240.5 942,-216 938.28,-207.15 933.7,-197.73 929.37,-189.33"/>
<polygon fill="grey" stroke="grey" stroke-width="2" points="932.41,-187.59 924.66,-180.36 926.21,-190.84 932.41,-187.59"/>
</g>
<!-- 20&#45;&gt;12 -->
<g id="edge26" class="edge">
<title>20&#45;&gt;12</title>
<path fill="none" stroke="grey" stroke-width="2" d="M945.09,-287.88C930.84,-278.81 913.15,-267.55 897.76,-257.76"/>
<polygon fill="grey" stroke="grey" stroke-width="2" points="899.33,-254.61 889.01,-252.19 895.57,-260.51 899.33,-254.61"/>
</g>
<!-- 20&#45;&gt;28 -->
<g id="edge50" class="edge">
<title>20&#45;&gt;28</title>
<path fill="none" stroke="grey" stroke-width="2" d="M961.55,-287.83C947.13,-264.68 921.28,-225.27 907,-216 853.11,-181.02 780.02,-168.72 727.35,-164.6"/>
<polygon fill="grey" stroke="grey" stroke-width="2" points="727.32,-161.09 717.1,-163.88 726.83,-168.07 727.32,-161.09"/>
</g>
<!-- 21 -->
<g id="node22" class="node">
<title>21</title>
<path fill="none" stroke="#bed856" stroke-width="2" stroke-dasharray="5,2" d="M574,-108C574,-108 530,-108 530,-108 524,-108 518,-102 518,-96 518,-96 518,-84 518,-84 518,-78 524,-72 530,-72 530,-72 574,-72 574,-72 580,-72 586,-78 586,-84 586,-84 586,-96 586,-96 586,-102 580,-108 574,-108"/>
<text text-anchor="middle" x="552" y="-87.5" font-family="sans" font-size="10.00">run_RFMix</text>
</g>
<!-- 21&#45;&gt;0 -->
<g id="edge3" class="edge">
<title>21&#45;&gt;0</title>
<path fill="none" stroke="grey" stroke-width="2" d="M564.85,-71.7C571.03,-63.39 578.54,-53.28 585.32,-44.14"/>
<polygon fill="grey" stroke="grey" stroke-width="2" points="588.14,-46.22 591.29,-36.1 582.52,-42.04 588.14,-46.22"/>
</g>
<!-- 22&#45;&gt;21 -->
<g id="edge37" class="edge">
<title>22&#45;&gt;21</title>
<path fill="none" stroke="grey" stroke-width="2" d="M541.88,-287.85C543.78,-250.83 548.29,-163.18 550.59,-118.39"/>
<polygon fill="grey" stroke="grey" stroke-width="2" points="554.1,-118.4 551.11,-108.23 547.11,-118.04 554.1,-118.4"/>
</g>
<!-- 23 -->
<g id="node24" class="node">
<title>23</title>
<path fill="none" stroke="#bed856" stroke-width="2" stroke-dasharray="5,2" d="M1175,-252C1175,-252 1131,-252 1131,-252 1125,-252 1119,-246 1119,-240 1119,-240 1119,-228 1119,-228 1119,-222 1125,-216 1131,-216 1131,-216 1175,-216 1175,-216 1181,-216 1187,-222 1187,-228 1187,-228 1187,-240 1187,-240 1187,-246 1181,-252 1175,-252"/>
<text text-anchor="middle" x="1153" y="-231.5" font-family="sans" font-size="10.00">run_RFMix</text>
</g>
<!-- 23&#45;&gt;0 -->
<g id="edge4" class="edge">
<title>23&#45;&gt;0</title>
<path fill="none" stroke="grey" stroke-width="2" d="M1118.98,-216.37C1080.84,-197.93 1017.01,-167.67 961,-144 878.59,-109.17 857.51,-101.4 773,-72 727.8,-56.27 675.1,-40.08 640.72,-29.8"/>
<polygon fill="grey" stroke="grey" stroke-width="2" points="641.68,-26.43 631.1,-26.93 639.68,-33.14 641.68,-26.43"/>
</g>
<!-- 24&#45;&gt;23 -->
<g id="edge40" class="edge">
<title>24&#45;&gt;23</title>
<path fill="none" stroke="grey" stroke-width="2" d="M1160.53,-287.7C1159.43,-279.98 1158.1,-270.71 1156.87,-262.11"/>
<polygon fill="grey" stroke="grey" stroke-width="2" points="1160.32,-261.51 1155.44,-252.1 1153.39,-262.5 1160.32,-261.51"/>
</g>
<!-- 25 -->
<g id="node26" class="node">
<title>25</title>
<path fill="none" stroke="#56d8c1" stroke-width="2" d="M357.5,-108C357.5,-108 308.5,-108 308.5,-108 302.5,-108 296.5,-102 296.5,-96 296.5,-96 296.5,-84 296.5,-84 296.5,-78 302.5,-72 308.5,-72 308.5,-72 357.5,-72 357.5,-72 363.5,-72 369.5,-78 369.5,-84 369.5,-84 369.5,-96 369.5,-96 369.5,-102 363.5,-108 357.5,-108"/>
<text text-anchor="middle" x="333" y="-87.5" font-family="sans" font-size="10.00">run_mosaic</text>
</g>
<!-- 25&#45;&gt;0 -->
<g id="edge5" class="edge">
<title>25&#45;&gt;0</title>
<path fill="none" stroke="grey" stroke-width="2" d="M369.55,-79.56C421.15,-66.23 514.86,-42.02 566.81,-28.61"/>
<polygon fill="grey" stroke="grey" stroke-width="2" points="567.81,-31.96 576.62,-26.07 566.06,-25.18 567.81,-31.96"/>
</g>
<!-- 26&#45;&gt;25 -->
<g id="edge43" class="edge">
<title>26&#45;&gt;25</title>
<path fill="none" stroke="grey" stroke-width="2" d="M278.8,-143.7C287.6,-135.14 298.38,-124.66 308,-115.3"/>
<polygon fill="grey" stroke="grey" stroke-width="2" points="310.68,-117.58 315.41,-108.1 305.8,-112.57 310.68,-117.58"/>
</g>
<!-- 27 -->
<g id="node28" class="node">
<title>27</title>
<path fill="none" stroke="#56d8c1" stroke-width="2" d="M669.5,-108C669.5,-108 620.5,-108 620.5,-108 614.5,-108 608.5,-102 608.5,-96 608.5,-96 608.5,-84 608.5,-84 608.5,-78 614.5,-72 620.5,-72 620.5,-72 669.5,-72 669.5,-72 675.5,-72 681.5,-78 681.5,-84 681.5,-84 681.5,-96 681.5,-96 681.5,-102 675.5,-108 669.5,-108"/>
<text text-anchor="middle" x="645" y="-87.5" font-family="sans" font-size="10.00">run_mosaic</text>
</g>
<!-- 27&#45;&gt;0 -->
<g id="edge6" class="edge">
<title>27&#45;&gt;0</title>
<path fill="none" stroke="grey" stroke-width="2" d="M634.87,-71.7C630.15,-63.64 624.44,-53.89 619.22,-44.98"/>
<polygon fill="grey" stroke="grey" stroke-width="2" points="622.09,-42.96 614.02,-36.1 616.05,-46.5 622.09,-42.96"/>
</g>
<!-- 28&#45;&gt;27 -->
<g id="edge48" class="edge">
<title>28&#45;&gt;27</title>
<path fill="none" stroke="grey" stroke-width="2" d="M656.29,-143.7C654.64,-135.98 652.65,-126.71 650.81,-118.11"/>
<polygon fill="grey" stroke="grey" stroke-width="2" points="654.18,-117.15 648.67,-108.1 647.34,-118.62 654.18,-117.15"/>
</g>
</g>
</svg>
