<?xml version="1.0" encoding="UTF-8" standalone="no"?>
<!DOCTYPE svg PUBLIC "-//W3C//DTD SVG 1.1//EN"
 "http://www.w3.org/Graphics/SVG/1.1/DTD/svg11.dtd">
<!-- Generated by graphviz version 2.50.0 (20211209.0339)
 -->
<!-- Title: snakemake_dag Pages: 1 -->
<svg width="744pt" height="1124pt"
 viewBox="0.00 0.00 744.00 1124.00" xmlns="http://www.w3.org/2000/svg" xmlns:xlink="http://www.w3.org/1999/xlink">
<g id="graph0" class="graph" transform="scale(1 1) rotate(0) translate(4 1120)">
<title>snakemake_dag</title>
<polygon fill="white" stroke="transparent" points="-4,4 -4,-1120 740,-1120 740,4 -4,4"/>
<!-- 0 -->
<g id="node1" class="node">
<title>0</title>
<path fill="none" stroke="#d86656" stroke-width="2" d="M364,-36C364,-36 334,-36 334,-36 328,-36 322,-30 322,-24 322,-24 322,-12 322,-12 322,-6 328,0 334,0 334,0 364,0 364,0 370,0 376,-6 376,-12 376,-12 376,-24 376,-24 376,-30 370,-36 364,-36"/>
<text text-anchor="middle" x="349" y="-15.5" font-family="sans" font-size="10.00">all</text>
</g>
<!-- 1 -->
<g id="node2" class="node">
<title>1</title>
<path fill="none" stroke="#9fd856" stroke-width="2" d="M724,-684C724,-684 636,-684 636,-684 630,-684 624,-678 624,-672 624,-672 624,-660 624,-660 624,-654 630,-648 636,-648 636,-648 724,-648 724,-648 730,-648 736,-654 736,-660 736,-660 736,-672 736,-672 736,-678 730,-684 724,-684"/>
<text text-anchor="middle" x="680" y="-663.5" font-family="sans" font-size="10.00">plot_pop_coal_time</text>
</g>
<!-- 1&#45;&gt;0 -->
<g id="edge3" class="edge">
<title>1&#45;&gt;0</title>
<path fill="none" stroke="grey" stroke-width="2" d="M681.78,-647.97C684.4,-621.34 689,-568.21 689,-523 689,-523 689,-523 689,-161 689,-30.99 474.71,-17.91 386.37,-18.04"/>
<polygon fill="grey" stroke="grey" stroke-width="2" points="386.22,-14.54 376.25,-18.12 386.27,-21.54 386.22,-14.54"/>
</g>
<!-- 2 -->
<g id="node3" class="node">
<title>2</title>
<path fill="none" stroke="#56d863" stroke-width="2" d="M523.5,-828C523.5,-828 482.5,-828 482.5,-828 476.5,-828 470.5,-822 470.5,-816 470.5,-816 470.5,-804 470.5,-804 470.5,-798 476.5,-792 482.5,-792 482.5,-792 523.5,-792 523.5,-792 529.5,-792 535.5,-798 535.5,-804 535.5,-804 535.5,-816 535.5,-816 535.5,-822 529.5,-828 523.5,-828"/>
<text text-anchor="middle" x="503" y="-807.5" font-family="sans" font-size="10.00">filter_inds</text>
</g>
<!-- 2&#45;&gt;1 -->
<g id="edge9" class="edge">
<title>2&#45;&gt;1</title>
<path fill="none" stroke="grey" stroke-width="2" d="M535.62,-794.91C555.56,-785.46 580.99,-771.86 601,-756 624.55,-737.33 646.85,-711.14 661.71,-692"/>
<polygon fill="grey" stroke="grey" stroke-width="2" points="664.52,-694.09 667.8,-684.02 658.95,-689.85 664.52,-694.09"/>
</g>
<!-- 7 -->
<g id="node8" class="node">
<title>7</title>
<path fill="none" stroke="#56d892" stroke-width="2" d="M649,-612C649,-612 571,-612 571,-612 565,-612 559,-606 559,-600 559,-600 559,-588 559,-588 559,-582 565,-576 571,-576 571,-576 649,-576 649,-576 655,-576 661,-582 661,-588 661,-588 661,-600 661,-600 661,-606 655,-612 649,-612"/>
<text text-anchor="middle" x="610" y="-591.5" font-family="sans" font-size="10.00">plot_pairwise_Fst</text>
</g>
<!-- 2&#45;&gt;7 -->
<g id="edge14" class="edge">
<title>2&#45;&gt;7</title>
<path fill="none" stroke="grey" stroke-width="2" d="M518.74,-791.77C527.27,-781.83 537.56,-768.79 545,-756 570.85,-711.57 591.11,-654.88 601.75,-621.99"/>
<polygon fill="grey" stroke="grey" stroke-width="2" points="605.17,-622.78 604.86,-612.19 598.5,-620.66 605.17,-622.78"/>
</g>
<!-- 10 -->
<g id="node11" class="node">
<title>10</title>
<path fill="none" stroke="#d8ac56" stroke-width="2" d="M400,-756C400,-756 312,-756 312,-756 306,-756 300,-750 300,-744 300,-744 300,-732 300,-732 300,-726 306,-720 312,-720 312,-720 400,-720 400,-720 406,-720 412,-726 412,-732 412,-732 412,-744 412,-744 412,-750 406,-756 400,-756"/>
<text text-anchor="middle" x="356" y="-735.5" font-family="sans" font-size="10.00">true_local_ancestry</text>
</g>
<!-- 2&#45;&gt;10 -->
<g id="edge22" class="edge">
<title>2&#45;&gt;10</title>
<path fill="none" stroke="grey" stroke-width="2" d="M470.38,-793.46C450.02,-783.77 423.54,-771.16 401.18,-760.51"/>
<polygon fill="grey" stroke="grey" stroke-width="2" points="402.41,-757.23 391.88,-756.09 399.4,-763.55 402.41,-757.23"/>
</g>
<!-- 13 -->
<g id="node14" class="node">
<title>13</title>
<path fill="none" stroke="#56d873" stroke-width="2" d="M418,-396C418,-396 328,-396 328,-396 322,-396 316,-390 316,-384 316,-384 316,-372 316,-372 316,-366 322,-360 328,-360 328,-360 418,-360 418,-360 424,-360 430,-366 430,-372 430,-372 430,-384 430,-384 430,-390 424,-396 418,-396"/>
<text text-anchor="middle" x="373" y="-375.5" font-family="sans" font-size="10.00">make_mosaic_input</text>
</g>
<!-- 2&#45;&gt;13 -->
<g id="edge27" class="edge">
<title>2&#45;&gt;13</title>
<path fill="none" stroke="grey" stroke-width="2" d="M508.67,-791.73C516.85,-765.21 531,-712.73 531,-667 531,-667 531,-667 531,-521 531,-463.21 471.8,-422.96 425.87,-400.43"/>
<polygon fill="grey" stroke="grey" stroke-width="2" points="427.13,-397.15 416.59,-396.03 424.13,-403.48 427.13,-397.15"/>
</g>
<!-- 17 -->
<g id="node18" class="node">
<title>17</title>
<path fill="none" stroke="#5682d8" stroke-width="2" d="M359.5,-684C359.5,-684 316.5,-684 316.5,-684 310.5,-684 304.5,-678 304.5,-672 304.5,-672 304.5,-660 304.5,-660 304.5,-654 310.5,-648 316.5,-648 316.5,-648 359.5,-648 359.5,-648 365.5,-648 371.5,-654 371.5,-660 371.5,-660 371.5,-672 371.5,-672 371.5,-678 365.5,-684 359.5,-684"/>
<text text-anchor="middle" x="338" y="-663.5" font-family="sans" font-size="10.00">write_vcfs</text>
</g>
<!-- 2&#45;&gt;17 -->
<g id="edge33" class="edge">
<title>2&#45;&gt;17</title>
<path fill="none" stroke="grey" stroke-width="2" d="M489.36,-791.7C473.96,-772.8 447.57,-742.26 421,-720 407.65,-708.82 391.78,-698.14 377.52,-689.34"/>
<polygon fill="grey" stroke="grey" stroke-width="2" points="379.25,-686.3 368.88,-684.12 375.62,-692.29 379.25,-686.3"/>
</g>
<!-- 3 -->
<g id="node4" class="node">
<title>3</title>
<path fill="none" stroke="#68d856" stroke-width="2" d="M437.5,-900C437.5,-900 380.5,-900 380.5,-900 374.5,-900 368.5,-894 368.5,-888 368.5,-888 368.5,-876 368.5,-876 368.5,-870 374.5,-864 380.5,-864 380.5,-864 437.5,-864 437.5,-864 443.5,-864 449.5,-870 449.5,-876 449.5,-876 449.5,-888 449.5,-888 449.5,-894 443.5,-900 437.5,-900"/>
<text text-anchor="middle" x="409" y="-879.5" font-family="sans" font-size="10.00">sample_sites</text>
</g>
<!-- 3&#45;&gt;2 -->
<g id="edge10" class="edge">
<title>3&#45;&gt;2</title>
<path fill="none" stroke="grey" stroke-width="2" d="M432.24,-863.7C444.19,-854.8 458.92,-843.82 471.85,-834.2"/>
<polygon fill="grey" stroke="grey" stroke-width="2" points="474.1,-836.88 480.03,-828.1 469.92,-831.27 474.1,-836.88"/>
</g>
<!-- 3&#45;&gt;10 -->
<g id="edge21" class="edge">
<title>3&#45;&gt;10</title>
<path fill="none" stroke="grey" stroke-width="2" d="M402.61,-863.87C393.49,-839.46 376.69,-794.43 365.94,-765.64"/>
<polygon fill="grey" stroke="grey" stroke-width="2" points="369.19,-764.33 362.42,-756.19 362.63,-766.78 369.19,-764.33"/>
</g>
<!-- 4 -->
<g id="node5" class="node">
<title>4</title>
<path fill="none" stroke="#56d8a9" stroke-width="2" d="M428,-972C428,-972 390,-972 390,-972 384,-972 378,-966 378,-960 378,-960 378,-948 378,-948 378,-942 384,-936 390,-936 390,-936 428,-936 428,-936 434,-936 440,-942 440,-948 440,-948 440,-960 440,-960 440,-966 434,-972 428,-972"/>
<text text-anchor="middle" x="409" y="-951.5" font-family="sans" font-size="10.00">ascertain</text>
</g>
<!-- 4&#45;&gt;3 -->
<g id="edge11" class="edge">
<title>4&#45;&gt;3</title>
<path fill="none" stroke="grey" stroke-width="2" d="M409,-935.7C409,-927.98 409,-918.71 409,-910.11"/>
<polygon fill="grey" stroke="grey" stroke-width="2" points="412.5,-910.1 409,-900.1 405.5,-910.1 412.5,-910.1"/>
</g>
<!-- 5 -->
<g id="node6" class="node">
<title>5</title>
<path fill="none" stroke="#d6d856" stroke-width="2" d="M450.5,-1044C450.5,-1044 367.5,-1044 367.5,-1044 361.5,-1044 355.5,-1038 355.5,-1032 355.5,-1032 355.5,-1020 355.5,-1020 355.5,-1014 361.5,-1008 367.5,-1008 367.5,-1008 450.5,-1008 450.5,-1008 456.5,-1008 462.5,-1014 462.5,-1020 462.5,-1020 462.5,-1032 462.5,-1032 462.5,-1038 456.5,-1044 450.5,-1044"/>
<text text-anchor="middle" x="409" y="-1023.5" font-family="sans" font-size="10.00">recap_and_mutate</text>
</g>
<!-- 5&#45;&gt;4 -->
<g id="edge12" class="edge">
<title>5&#45;&gt;4</title>
<path fill="none" stroke="grey" stroke-width="2" d="M409,-1007.7C409,-999.98 409,-990.71 409,-982.11"/>
<polygon fill="grey" stroke="grey" stroke-width="2" points="412.5,-982.1 409,-972.1 405.5,-982.1 412.5,-982.1"/>
</g>
<!-- 6 -->
<g id="node7" class="node">
<title>6</title>
<path fill="none" stroke="#d8cb56" stroke-width="2" d="M454.5,-1116C454.5,-1116 363.5,-1116 363.5,-1116 357.5,-1116 351.5,-1110 351.5,-1104 351.5,-1104 351.5,-1092 351.5,-1092 351.5,-1086 357.5,-1080 363.5,-1080 363.5,-1080 454.5,-1080 454.5,-1080 460.5,-1080 466.5,-1086 466.5,-1092 466.5,-1092 466.5,-1104 466.5,-1104 466.5,-1110 460.5,-1116 454.5,-1116"/>
<text text-anchor="middle" x="409" y="-1095.5" font-family="sans" font-size="10.00">simulate_admixture</text>
</g>
<!-- 6&#45;&gt;5 -->
<g id="edge13" class="edge">
<title>6&#45;&gt;5</title>
<path fill="none" stroke="grey" stroke-width="2" d="M409,-1079.7C409,-1071.98 409,-1062.71 409,-1054.11"/>
<polygon fill="grey" stroke="grey" stroke-width="2" points="412.5,-1054.1 409,-1044.1 405.5,-1054.1 412.5,-1054.1"/>
</g>
<!-- 7&#45;&gt;0 -->
<g id="edge4" class="edge">
<title>7&#45;&gt;0</title>
<path fill="none" stroke="grey" stroke-width="2" d="M609.6,-575.95C609.02,-549.29 608,-496.12 608,-451 608,-451 608,-451 608,-161 608,-120.14 614.35,-100.42 585,-72 556.97,-44.85 445.27,-29.19 386.14,-22.64"/>
<polygon fill="grey" stroke="grey" stroke-width="2" points="386.41,-19.15 376.09,-21.56 385.66,-26.11 386.41,-19.15"/>
</g>
<!-- 8 -->
<g id="node9" class="node">
<title>8</title>
<path fill="none" stroke="#56d882" stroke-width="2" d="M430,-108C430,-108 362,-108 362,-108 356,-108 350,-102 350,-96 350,-96 350,-84 350,-84 350,-78 356,-72 362,-72 362,-72 430,-72 430,-72 436,-72 442,-78 442,-84 442,-84 442,-96 442,-96 442,-102 436,-108 430,-108"/>
<text text-anchor="middle" x="396" y="-87.5" font-family="sans" font-size="10.00">plot_qq_reports</text>
</g>
<!-- 8&#45;&gt;0 -->
<g id="edge5" class="edge">
<title>8&#45;&gt;0</title>
<path fill="none" stroke="grey" stroke-width="2" d="M384.38,-71.7C378.86,-63.47 372.15,-53.48 366.07,-44.42"/>
<polygon fill="grey" stroke="grey" stroke-width="2" points="368.96,-42.46 360.48,-36.1 363.15,-46.36 368.96,-42.46"/>
</g>
<!-- 9 -->
<g id="node10" class="node">
<title>9</title>
<path fill="none" stroke="#d85656" stroke-width="2" d="M433,-180C433,-180 359,-180 359,-180 353,-180 347,-174 347,-168 347,-168 347,-156 347,-156 347,-150 353,-144 359,-144 359,-144 433,-144 433,-144 439,-144 445,-150 445,-156 445,-156 445,-168 445,-168 445,-174 439,-180 433,-180"/>
<text text-anchor="middle" x="396" y="-159.5" font-family="sans" font-size="10.00">write_qq_reports</text>
</g>
<!-- 9&#45;&gt;8 -->
<g id="edge15" class="edge">
<title>9&#45;&gt;8</title>
<path fill="none" stroke="grey" stroke-width="2" d="M396,-143.7C396,-135.98 396,-126.71 396,-118.11"/>
<polygon fill="grey" stroke="grey" stroke-width="2" points="399.5,-118.1 396,-108.1 392.5,-118.1 399.5,-118.1"/>
</g>
<!-- 24 -->
<g id="node25" class="node">
<title>24</title>
<path fill="none" stroke="#d88556" stroke-width="2" d="M564,-108C564,-108 472,-108 472,-108 466,-108 460,-102 460,-96 460,-96 460,-84 460,-84 460,-78 466,-72 472,-72 472,-72 564,-72 564,-72 570,-72 576,-78 576,-84 576,-84 576,-96 576,-96 576,-102 570,-108 564,-108"/>
<text text-anchor="middle" x="518" y="-87.5" font-family="sans" font-size="10.00">combine_qq_reports</text>
</g>
<!-- 9&#45;&gt;24 -->
<g id="edge51" class="edge">
<title>9&#45;&gt;24</title>
<path fill="none" stroke="grey" stroke-width="2" d="M425.84,-143.88C441.94,-134.64 462,-123.13 479.29,-113.21"/>
<polygon fill="grey" stroke="grey" stroke-width="2" points="481.11,-116.2 488.04,-108.19 477.63,-110.13 481.11,-116.2"/>
</g>
<!-- 10&#45;&gt;9 -->
<g id="edge19" class="edge">
<title>10&#45;&gt;9</title>
<path fill="none" stroke="grey" stroke-width="2" d="M378.46,-719.97C407.67,-695.71 455,-648.19 455,-595 455,-595 455,-595 455,-521 455,-384.55 457.47,-347.2 420,-216 417.45,-207.06 413.63,-197.71 409.79,-189.38"/>
<polygon fill="grey" stroke="grey" stroke-width="2" points="412.84,-187.66 405.34,-180.18 406.54,-190.7 412.84,-187.66"/>
</g>
<!-- 10&#45;&gt;17 -->
<g id="edge34" class="edge">
<title>10&#45;&gt;17</title>
<path fill="none" stroke="grey" stroke-width="2" d="M351.55,-719.7C349.55,-711.9 347.13,-702.51 344.9,-693.83"/>
<polygon fill="grey" stroke="grey" stroke-width="2" points="348.28,-692.92 342.4,-684.1 341.5,-694.66 348.28,-692.92"/>
</g>
<!-- 20 -->
<g id="node21" class="node">
<title>20</title>
<path fill="none" stroke="#59d856" stroke-width="2" d="M172,-180C172,-180 114,-180 114,-180 108,-180 102,-174 102,-168 102,-168 102,-156 102,-156 102,-150 108,-144 114,-144 114,-144 172,-144 172,-144 178,-144 184,-150 184,-156 184,-156 184,-168 184,-168 184,-174 178,-180 172,-180"/>
<text text-anchor="middle" x="143" y="-159.5" font-family="sans" font-size="10.00">get_R2_score</text>
</g>
<!-- 10&#45;&gt;20 -->
<g id="edge42" class="edge">
<title>10&#45;&gt;20</title>
<path fill="none" stroke="grey" stroke-width="2" d="M299.87,-732.94C223.07,-726.43 90.28,-711.53 51,-684 13.67,-657.84 0,-640.59 0,-595 0,-595 0,-595 0,-305 0,-249.59 54.73,-208.39 96.48,-185.03"/>
<polygon fill="grey" stroke="grey" stroke-width="2" points="98.31,-188.01 105.43,-180.17 94.97,-181.86 98.31,-188.01"/>
</g>
<!-- 21 -->
<g id="node22" class="node">
<title>21</title>
<path fill="none" stroke="#afd856" stroke-width="2" d="M270.5,-180C270.5,-180 217.5,-180 217.5,-180 211.5,-180 205.5,-174 205.5,-168 205.5,-168 205.5,-156 205.5,-156 205.5,-150 211.5,-144 217.5,-144 217.5,-144 270.5,-144 270.5,-144 276.5,-144 282.5,-150 282.5,-156 282.5,-156 282.5,-168 282.5,-168 282.5,-174 276.5,-180 270.5,-180"/>
<text text-anchor="middle" x="244" y="-159.5" font-family="sans" font-size="10.00">get_Q_score</text>
</g>
<!-- 10&#45;&gt;21 -->
<g id="edge47" class="edge">
<title>10&#45;&gt;21</title>
<path fill="none" stroke="grey" stroke-width="2" d="M299.88,-736.29C208.59,-731.84 38,-708.37 38,-595 38,-595 38,-595 38,-305 38,-257.54 59.68,-245.31 97,-216 101.15,-212.74 154.51,-193.88 195.76,-179.58"/>
<polygon fill="grey" stroke="grey" stroke-width="2" points="197.11,-182.81 205.42,-176.24 194.83,-176.2 197.11,-182.81"/>
</g>
<!-- 11 -->
<g id="node12" class="node">
<title>11</title>
<path fill="none" stroke="#56d8a2" stroke-width="2" d="M399.5,-252C399.5,-252 334.5,-252 334.5,-252 328.5,-252 322.5,-246 322.5,-240 322.5,-240 322.5,-228 322.5,-228 322.5,-222 328.5,-216 334.5,-216 334.5,-216 399.5,-216 399.5,-216 405.5,-216 411.5,-222 411.5,-228 411.5,-228 411.5,-240 411.5,-240 411.5,-246 405.5,-252 399.5,-252"/>
<text text-anchor="middle" x="367" y="-231.5" font-family="sans" font-size="10.00">export_mosaic</text>
</g>
<!-- 11&#45;&gt;9 -->
<g id="edge18" class="edge">
<title>11&#45;&gt;9</title>
<path fill="none" stroke="grey" stroke-width="2" d="M374.17,-215.7C377.43,-207.81 381.37,-198.3 385,-189.55"/>
<polygon fill="grey" stroke="grey" stroke-width="2" points="388.32,-190.68 388.91,-180.1 381.85,-188 388.32,-190.68"/>
</g>
<!-- 11&#45;&gt;20 -->
<g id="edge41" class="edge">
<title>11&#45;&gt;20</title>
<path fill="none" stroke="grey" stroke-width="2" d="M322.32,-219.28C287.79,-208.65 238.83,-193.51 196,-180 195.27,-179.77 194.54,-179.54 193.81,-179.31"/>
<polygon fill="grey" stroke="grey" stroke-width="2" points="194.66,-175.91 184.07,-176.22 192.55,-182.58 194.66,-175.91"/>
</g>
<!-- 11&#45;&gt;21 -->
<g id="edge46" class="edge">
<title>11&#45;&gt;21</title>
<path fill="none" stroke="grey" stroke-width="2" d="M336.91,-215.88C320.68,-206.64 300.46,-195.13 283.03,-185.21"/>
<polygon fill="grey" stroke="grey" stroke-width="2" points="284.63,-182.09 274.2,-180.19 281.16,-188.18 284.63,-182.09"/>
</g>
<!-- 12 -->
<g id="node13" class="node">
<title>12</title>
<path fill="none" stroke="#bed856" stroke-width="2" d="M394.5,-324C394.5,-324 345.5,-324 345.5,-324 339.5,-324 333.5,-318 333.5,-312 333.5,-312 333.5,-300 333.5,-300 333.5,-294 339.5,-288 345.5,-288 345.5,-288 394.5,-288 394.5,-288 400.5,-288 406.5,-294 406.5,-300 406.5,-300 406.5,-312 406.5,-312 406.5,-318 400.5,-324 394.5,-324"/>
<text text-anchor="middle" x="370" y="-303.5" font-family="sans" font-size="10.00">run_mosaic</text>
</g>
<!-- 12&#45;&gt;11 -->
<g id="edge23" class="edge">
<title>12&#45;&gt;11</title>
<path fill="none" stroke="grey" stroke-width="2" d="M369.26,-287.7C368.93,-279.98 368.53,-270.71 368.16,-262.11"/>
<polygon fill="grey" stroke="grey" stroke-width="2" points="371.66,-261.95 367.73,-252.1 364.66,-262.25 371.66,-261.95"/>
</g>
<!-- 13&#45;&gt;12 -->
<g id="edge24" class="edge">
<title>13&#45;&gt;12</title>
<path fill="none" stroke="grey" stroke-width="2" d="M372.26,-359.7C371.93,-351.98 371.53,-342.71 371.16,-334.11"/>
<polygon fill="grey" stroke="grey" stroke-width="2" points="374.66,-333.95 370.73,-324.1 367.66,-334.25 374.66,-333.95"/>
</g>
<!-- 14 -->
<g id="node15" class="node">
<title>14</title>
<path fill="none" stroke="#d87556" stroke-width="2" d="M229,-468C229,-468 195,-468 195,-468 189,-468 183,-462 183,-456 183,-456 183,-444 183,-444 183,-438 189,-432 195,-432 195,-432 229,-432 229,-432 235,-432 241,-438 241,-444 241,-444 241,-456 241,-456 241,-462 235,-468 229,-468"/>
<text text-anchor="middle" x="212" y="-447.5" font-family="sans" font-size="10.00">split_vcf</text>
</g>
<!-- 14&#45;&gt;13 -->
<g id="edge26" class="edge">
<title>14&#45;&gt;13</title>
<path fill="none" stroke="grey" stroke-width="2" d="M241.16,-436.32C264.34,-426.24 297.27,-411.92 324.42,-400.12"/>
<polygon fill="grey" stroke="grey" stroke-width="2" points="325.99,-403.26 333.76,-396.06 323.2,-396.84 325.99,-403.26"/>
</g>
<!-- 18 -->
<g id="node19" class="node">
<title>18</title>
<path fill="none" stroke="#70d856" stroke-width="2" d="M168,-252C168,-252 118,-252 118,-252 112,-252 106,-246 106,-240 106,-240 106,-228 106,-228 106,-222 112,-216 118,-216 118,-216 168,-216 168,-216 174,-216 180,-222 180,-228 180,-228 180,-240 180,-240 180,-246 174,-252 168,-252"/>
<text text-anchor="middle" x="143" y="-231.5" font-family="sans" font-size="10.00">run_RFMix2</text>
</g>
<!-- 14&#45;&gt;18 -->
<g id="edge36" class="edge">
<title>14&#45;&gt;18</title>
<path fill="none" stroke="grey" stroke-width="2" d="M206.47,-431.85C194.48,-394.68 166.03,-306.44 151.65,-261.82"/>
<polygon fill="grey" stroke="grey" stroke-width="2" points="154.96,-260.68 148.56,-252.23 148.29,-262.82 154.96,-260.68"/>
</g>
<!-- 19 -->
<g id="node20" class="node">
<title>19</title>
<path fill="none" stroke="#d88d56" stroke-width="2" d="M248,-252C248,-252 210,-252 210,-252 204,-252 198,-246 198,-240 198,-240 198,-228 198,-228 198,-222 204,-216 210,-216 210,-216 248,-216 248,-216 254,-216 260,-222 260,-228 260,-228 260,-240 260,-240 260,-246 254,-252 248,-252"/>
<text text-anchor="middle" x="229" y="-231.5" font-family="sans" font-size="10.00">run_bmix</text>
</g>
<!-- 14&#45;&gt;19 -->
<g id="edge38" class="edge">
<title>14&#45;&gt;19</title>
<path fill="none" stroke="grey" stroke-width="2" d="M213.36,-431.85C216.3,-394.83 223.27,-307.18 226.82,-262.39"/>
<polygon fill="grey" stroke="grey" stroke-width="2" points="230.33,-262.48 227.63,-252.23 223.35,-261.92 230.33,-262.48"/>
</g>
<!-- 15 -->
<g id="node16" class="node">
<title>15</title>
<path fill="none" stroke="#56d8b9" stroke-width="2" d="M249.5,-540C249.5,-540 202.5,-540 202.5,-540 196.5,-540 190.5,-534 190.5,-528 190.5,-528 190.5,-516 190.5,-516 190.5,-510 196.5,-504 202.5,-504 202.5,-504 249.5,-504 249.5,-504 255.5,-504 261.5,-510 261.5,-516 261.5,-516 261.5,-528 261.5,-528 261.5,-534 255.5,-540 249.5,-540"/>
<text text-anchor="middle" x="226" y="-519.5" font-family="sans" font-size="10.00">run_beagle</text>
</g>
<!-- 15&#45;&gt;14 -->
<g id="edge28" class="edge">
<title>15&#45;&gt;14</title>
<path fill="none" stroke="grey" stroke-width="2" d="M222.54,-503.7C221,-495.98 219.14,-486.71 217.42,-478.11"/>
<polygon fill="grey" stroke="grey" stroke-width="2" points="220.81,-477.22 215.42,-468.1 213.95,-478.6 220.81,-477.22"/>
</g>
<!-- 16 -->
<g id="node17" class="node">
<title>16</title>
<path fill="none" stroke="#56c9d8" stroke-width="2" d="M260,-612C260,-612 192,-612 192,-612 186,-612 180,-606 180,-600 180,-600 180,-588 180,-588 180,-582 186,-576 192,-576 192,-576 260,-576 260,-576 266,-576 272,-582 272,-588 272,-588 272,-600 272,-600 272,-606 266,-612 260,-612"/>
<text text-anchor="middle" x="226" y="-591.5" font-family="sans" font-size="10.00">add_geno_error</text>
</g>
<!-- 16&#45;&gt;15 -->
<g id="edge31" class="edge">
<title>16&#45;&gt;15</title>
<path fill="none" stroke="grey" stroke-width="2" d="M226,-575.7C226,-567.98 226,-558.71 226,-550.11"/>
<polygon fill="grey" stroke="grey" stroke-width="2" points="229.5,-550.1 226,-540.1 222.5,-550.1 229.5,-550.1"/>
</g>
<!-- 17&#45;&gt;9 -->
<g id="edge20" class="edge">
<title>17&#45;&gt;9</title>
<path fill="none" stroke="grey" stroke-width="2" d="M367.92,-647.88C381.88,-638.69 397.84,-626.31 409,-612 451.63,-557.32 453.99,-535.69 469,-468 481.62,-411.11 485.2,-241.3 472,-216 465.53,-203.61 454.7,-193.52 443.21,-185.6"/>
<polygon fill="grey" stroke="grey" stroke-width="2" points="445.09,-182.65 434.78,-180.22 441.32,-188.55 445.09,-182.65"/>
</g>
<!-- 17&#45;&gt;13 -->
<g id="edge25" class="edge">
<title>17&#45;&gt;13</title>
<path fill="none" stroke="grey" stroke-width="2" d="M361.75,-647.91C372.55,-638.65 384.2,-626.2 390,-612 418.61,-541.99 396.52,-450.34 382.41,-405.73"/>
<polygon fill="grey" stroke="grey" stroke-width="2" points="385.73,-404.61 379.29,-396.19 379.07,-406.79 385.73,-404.61"/>
</g>
<!-- 17&#45;&gt;14 -->
<g id="edge29" class="edge">
<title>17&#45;&gt;14</title>
<path fill="none" stroke="grey" stroke-width="2" d="M304.46,-665.2C265.16,-663.41 201.54,-653.73 171,-612 141.13,-571.19 171.41,-510.76 193.46,-476.73"/>
<polygon fill="grey" stroke="grey" stroke-width="2" points="196.46,-478.53 199.12,-468.27 190.65,-474.63 196.46,-478.53"/>
</g>
<!-- 17&#45;&gt;15 -->
<g id="edge30" class="edge">
<title>17&#45;&gt;15</title>
<path fill="none" stroke="grey" stroke-width="2" d="M328.6,-647.79C318.11,-629.25 300.08,-599.27 281,-576 272.72,-565.91 262.68,-555.74 253.45,-547.05"/>
<polygon fill="grey" stroke="grey" stroke-width="2" points="255.67,-544.33 245.95,-540.13 250.93,-549.48 255.67,-544.33"/>
</g>
<!-- 17&#45;&gt;16 -->
<g id="edge32" class="edge">
<title>17&#45;&gt;16</title>
<path fill="none" stroke="grey" stroke-width="2" d="M310.6,-647.88C296.09,-638.81 278.08,-627.55 262.41,-617.76"/>
<polygon fill="grey" stroke="grey" stroke-width="2" points="263.84,-614.52 253.5,-612.19 260.13,-620.46 263.84,-614.52"/>
</g>
<!-- 17&#45;&gt;18 -->
<g id="edge35" class="edge">
<title>17&#45;&gt;18</title>
<path fill="none" stroke="grey" stroke-width="2" d="M304.35,-663.49C264.34,-660.01 197.62,-648.67 155,-612 121.99,-583.6 114,-566.55 114,-523 114,-523 114,-523 114,-377 114,-336.21 125.63,-290.15 134.16,-261.84"/>
<polygon fill="grey" stroke="grey" stroke-width="2" points="137.51,-262.84 137.13,-252.26 130.82,-260.77 137.51,-262.84"/>
</g>
<!-- 17&#45;&gt;19 -->
<g id="edge37" class="edge">
<title>17&#45;&gt;19</title>
<path fill="none" stroke="grey" stroke-width="2" d="M333.66,-647.88C316.91,-581.8 256.4,-343.08 235.87,-262.1"/>
<polygon fill="grey" stroke="grey" stroke-width="2" points="239.2,-261 233.35,-252.17 232.42,-262.72 239.2,-261"/>
</g>
<!-- 17&#45;&gt;20 -->
<g id="edge43" class="edge">
<title>17&#45;&gt;20</title>
<path fill="none" stroke="grey" stroke-width="2" d="M304.3,-665.29C257.9,-663.98 173.97,-655.21 120,-612 85.55,-584.42 76,-567.13 76,-523 76,-523 76,-523 76,-305 76,-264.36 78.48,-252.17 97,-216 102.27,-205.7 109.96,-195.76 117.55,-187.31"/>
<polygon fill="grey" stroke="grey" stroke-width="2" points="120.11,-189.7 124.41,-180.02 115.01,-184.9 120.11,-189.7"/>
</g>
<!-- 17&#45;&gt;21 -->
<g id="edge48" class="edge">
<title>17&#45;&gt;21</title>
<path fill="none" stroke="grey" stroke-width="2" d="M337.91,-647.89C337.65,-629.93 336.79,-600.9 334,-576 329.47,-535.61 281.39,-254.71 269,-216 266.15,-207.09 262.12,-197.73 258.12,-189.41"/>
<polygon fill="grey" stroke="grey" stroke-width="2" points="261.12,-187.58 253.52,-180.2 254.86,-190.71 261.12,-187.58"/>
</g>
<!-- 18&#45;&gt;9 -->
<g id="edge16" class="edge">
<title>18&#45;&gt;9</title>
<path fill="none" stroke="grey" stroke-width="2" d="M180.04,-218.94C183.06,-217.9 186.07,-216.91 189,-216 238.24,-200.64 295.05,-186.33 336.69,-176.46"/>
<polygon fill="grey" stroke="grey" stroke-width="2" points="337.73,-179.81 346.66,-174.12 336.13,-173 337.73,-179.81"/>
</g>
<!-- 18&#45;&gt;20 -->
<g id="edge39" class="edge">
<title>18&#45;&gt;20</title>
<path fill="none" stroke="grey" stroke-width="2" d="M143,-215.7C143,-207.98 143,-198.71 143,-190.11"/>
<polygon fill="grey" stroke="grey" stroke-width="2" points="146.5,-190.1 143,-180.1 139.5,-190.1 146.5,-190.1"/>
</g>
<!-- 18&#45;&gt;21 -->
<g id="edge44" class="edge">
<title>18&#45;&gt;21</title>
<path fill="none" stroke="grey" stroke-width="2" d="M167.71,-215.88C180.67,-206.89 196.73,-195.76 210.77,-186.03"/>
<polygon fill="grey" stroke="grey" stroke-width="2" points="212.97,-188.76 219.2,-180.19 208.98,-183.01 212.97,-188.76"/>
</g>
<!-- 19&#45;&gt;9 -->
<g id="edge17" class="edge">
<title>19&#45;&gt;9</title>
<path fill="none" stroke="grey" stroke-width="2" d="M260.02,-220C284.17,-209.87 318.18,-195.62 346.14,-183.9"/>
<polygon fill="grey" stroke="grey" stroke-width="2" points="347.5,-187.13 355.37,-180.03 344.79,-180.67 347.5,-187.13"/>
</g>
<!-- 19&#45;&gt;20 -->
<g id="edge40" class="edge">
<title>19&#45;&gt;20</title>
<path fill="none" stroke="grey" stroke-width="2" d="M207.74,-215.7C196.91,-206.88 183.58,-196.03 171.84,-186.47"/>
<polygon fill="grey" stroke="grey" stroke-width="2" points="173.98,-183.7 164.01,-180.1 169.56,-189.13 173.98,-183.7"/>
</g>
<!-- 19&#45;&gt;21 -->
<g id="edge45" class="edge">
<title>19&#45;&gt;21</title>
<path fill="none" stroke="grey" stroke-width="2" d="M232.71,-215.7C234.36,-207.98 236.35,-198.71 238.19,-190.11"/>
<polygon fill="grey" stroke="grey" stroke-width="2" points="241.66,-190.62 240.33,-180.1 234.82,-189.15 241.66,-190.62"/>
</g>
<!-- 20&#45;&gt;0 -->
<g id="edge8" class="edge">
<title>20&#45;&gt;0</title>
<path fill="none" stroke="grey" stroke-width="2" d="M137.36,-143.95C132.07,-124.43 127.1,-92.52 143,-72 163.47,-45.6 257.91,-30.04 311.53,-23.19"/>
<polygon fill="grey" stroke="grey" stroke-width="2" points="312.19,-26.63 321.68,-21.93 311.33,-19.69 312.19,-26.63"/>
</g>
<!-- 22 -->
<g id="node23" class="node">
<title>22</title>
<path fill="none" stroke="#d89c56" stroke-width="2" d="M204,-108C204,-108 164,-108 164,-108 158,-108 152,-102 152,-96 152,-96 152,-84 152,-84 152,-78 158,-72 164,-72 164,-72 204,-72 204,-72 210,-72 216,-78 216,-84 216,-84 216,-96 216,-96 216,-102 210,-108 204,-108"/>
<text text-anchor="middle" x="184" y="-87.5" font-family="sans" font-size="10.00">R2_report</text>
</g>
<!-- 20&#45;&gt;22 -->
<g id="edge49" class="edge">
<title>20&#45;&gt;22</title>
<path fill="none" stroke="grey" stroke-width="2" d="M153.13,-143.7C157.85,-135.64 163.56,-125.89 168.78,-116.98"/>
<polygon fill="grey" stroke="grey" stroke-width="2" points="171.95,-118.5 173.98,-108.1 165.91,-114.96 171.95,-118.5"/>
</g>
<!-- 21&#45;&gt;0 -->
<g id="edge2" class="edge">
<title>21&#45;&gt;0</title>
<path fill="none" stroke="grey" stroke-width="2" d="M243.79,-143.68C244.38,-124.49 247.88,-93.43 263,-72 275.2,-54.71 295,-41.94 312.53,-33.28"/>
<polygon fill="grey" stroke="grey" stroke-width="2" points="314.39,-36.28 321.97,-28.88 311.43,-29.93 314.39,-36.28"/>
</g>
<!-- 23 -->
<g id="node24" class="node">
<title>23</title>
<path fill="none" stroke="#56b9d8" stroke-width="2" d="M319.5,-108C319.5,-108 284.5,-108 284.5,-108 278.5,-108 272.5,-102 272.5,-96 272.5,-96 272.5,-84 272.5,-84 272.5,-78 278.5,-72 284.5,-72 284.5,-72 319.5,-72 319.5,-72 325.5,-72 331.5,-78 331.5,-84 331.5,-84 331.5,-96 331.5,-96 331.5,-102 325.5,-108 319.5,-108"/>
<text text-anchor="middle" x="302" y="-87.5" font-family="sans" font-size="10.00">Q_report</text>
</g>
<!-- 21&#45;&gt;23 -->
<g id="edge50" class="edge">
<title>21&#45;&gt;23</title>
<path fill="none" stroke="grey" stroke-width="2" d="M258.34,-143.7C265.29,-135.3 273.77,-125.07 281.4,-115.86"/>
<polygon fill="grey" stroke="grey" stroke-width="2" points="284.14,-118.04 287.83,-108.1 278.75,-113.57 284.14,-118.04"/>
</g>
<!-- 22&#45;&gt;0 -->
<g id="edge7" class="edge">
<title>22&#45;&gt;0</title>
<path fill="none" stroke="grey" stroke-width="2" d="M216.21,-75.34C243.84,-63.61 283.66,-46.72 312.48,-34.5"/>
<polygon fill="grey" stroke="grey" stroke-width="2" points="313.96,-37.67 321.79,-30.54 311.22,-31.23 313.96,-37.67"/>
</g>
<!-- 23&#45;&gt;0 -->
<g id="edge1" class="edge">
<title>23&#45;&gt;0</title>
<path fill="none" stroke="grey" stroke-width="2" d="M313.62,-71.7C319.14,-63.47 325.85,-53.48 331.93,-44.42"/>
<polygon fill="grey" stroke="grey" stroke-width="2" points="334.85,-46.36 337.52,-36.1 329.04,-42.46 334.85,-46.36"/>
</g>
<!-- 24&#45;&gt;0 -->
<g id="edge6" class="edge">
<title>24&#45;&gt;0</title>
<path fill="none" stroke="grey" stroke-width="2" d="M476.66,-71.88C448.81,-60.34 412.41,-45.26 385.61,-34.16"/>
<polygon fill="grey" stroke="grey" stroke-width="2" points="386.78,-30.86 376.2,-30.27 384.1,-37.33 386.78,-30.86"/>
</g>
</g>
</svg>
