<?xml version="1.0" encoding="UTF-8" standalone="no"?>
<!DOCTYPE svg PUBLIC "-//W3C//DTD SVG 1.1//EN"
 "http://www.w3.org/Graphics/SVG/1.1/DTD/svg11.dtd">
<!-- Generated by graphviz version 2.49.1 (20211004.0028)
 -->
<!-- Title: snakemake_dag Pages: 1 -->
<svg width="636pt" height="980pt"
 viewBox="0.00 0.00 636.00 980.00" xmlns="http://www.w3.org/2000/svg" xmlns:xlink="http://www.w3.org/1999/xlink">
<g id="graph0" class="graph" transform="scale(1 1) rotate(0) translate(4 976)">
<title>snakemake_dag</title>
<polygon fill="white" stroke="transparent" points="-4,4 -4,-976 632,-976 632,4 -4,4"/>
<!-- 0 -->
<g id="node1" class="node">
<title>0</title>
<path fill="none" stroke="#56d8c9" stroke-width="2" d="M513,-36C513,-36 483,-36 483,-36 477,-36 471,-30 471,-24 471,-24 471,-12 471,-12 471,-6 477,0 483,0 483,0 513,0 513,0 519,0 525,-6 525,-12 525,-12 525,-24 525,-24 525,-30 519,-36 513,-36"/>
<text text-anchor="middle" x="498" y="-15.5" font-family="sans" font-size="10.00">all</text>
</g>
<!-- 1 -->
<g id="node2" class="node">
<title>1</title>
<path fill="none" stroke="#56d8b9" stroke-width="2" d="M501,-612C501,-612 413,-612 413,-612 407,-612 401,-606 401,-600 401,-600 401,-588 401,-588 401,-582 407,-576 413,-576 413,-576 501,-576 501,-576 507,-576 513,-582 513,-588 513,-588 513,-600 513,-600 513,-606 507,-612 501,-612"/>
<text text-anchor="middle" x="457" y="-591.5" font-family="sans" font-size="10.00">plot_pop_coal_time</text>
</g>
<!-- 1&#45;&gt;0 -->
<g id="edge3" class="edge">
<title>1&#45;&gt;0</title>
<path fill="none" stroke="grey" stroke-width="2" d="M465.3,-575.97C477.28,-549.77 498,-497.7 498,-451 498,-451 498,-451 498,-161 498,-121 498,-74.65 498,-46.08"/>
<polygon fill="grey" stroke="grey" stroke-width="2" points="501.5,-46.05 498,-36.05 494.5,-46.05 501.5,-46.05"/>
</g>
<!-- 2 -->
<g id="node3" class="node">
<title>2</title>
<path fill="none" stroke="#d8b456" stroke-width="2" d="M335.5,-756C335.5,-756 294.5,-756 294.5,-756 288.5,-756 282.5,-750 282.5,-744 282.5,-744 282.5,-732 282.5,-732 282.5,-726 288.5,-720 294.5,-720 294.5,-720 335.5,-720 335.5,-720 341.5,-720 347.5,-726 347.5,-732 347.5,-732 347.5,-744 347.5,-744 347.5,-750 341.5,-756 335.5,-756"/>
<text text-anchor="middle" x="315" y="-735.5" font-family="sans" font-size="10.00">filter_inds</text>
</g>
<!-- 2&#45;&gt;1 -->
<g id="edge4" class="edge">
<title>2&#45;&gt;1</title>
<path fill="none" stroke="grey" stroke-width="2" d="M332.13,-719.87C357.18,-694.82 403.95,-648.05 432.59,-619.41"/>
<polygon fill="grey" stroke="grey" stroke-width="2" points="435.21,-621.74 439.81,-612.19 430.26,-616.79 435.21,-621.74"/>
</g>
<!-- 6 -->
<g id="node7" class="node">
<title>6</title>
<path fill="none" stroke="#78d856" stroke-width="2" d="M616,-540C616,-540 538,-540 538,-540 532,-540 526,-534 526,-528 526,-528 526,-516 526,-516 526,-510 532,-504 538,-504 538,-504 616,-504 616,-504 622,-504 628,-510 628,-516 628,-516 628,-528 628,-528 628,-534 622,-540 616,-540"/>
<text text-anchor="middle" x="577" y="-519.5" font-family="sans" font-size="10.00">plot_pairwise_Fst</text>
</g>
<!-- 2&#45;&gt;6 -->
<g id="edge8" class="edge">
<title>2&#45;&gt;6</title>
<path fill="none" stroke="grey" stroke-width="2" d="M347.63,-723.24C391.34,-703.57 469.49,-663.98 522,-612 540.44,-593.75 555.43,-568.15 565.07,-549.09"/>
<polygon fill="grey" stroke="grey" stroke-width="2" points="568.24,-550.57 569.5,-540.05 561.96,-547.5 568.24,-550.57"/>
</g>
<!-- 8 -->
<g id="node9" class="node">
<title>8</title>
<path fill="none" stroke="#56d89a" stroke-width="2" d="M239,-684C239,-684 151,-684 151,-684 145,-684 139,-678 139,-672 139,-672 139,-660 139,-660 139,-654 145,-648 151,-648 151,-648 239,-648 239,-648 245,-648 251,-654 251,-660 251,-660 251,-672 251,-672 251,-678 245,-684 239,-684"/>
<text text-anchor="middle" x="195" y="-663.5" font-family="sans" font-size="10.00">true_local_ancestry</text>
</g>
<!-- 2&#45;&gt;8 -->
<g id="edge13" class="edge">
<title>2&#45;&gt;8</title>
<path fill="none" stroke="grey" stroke-width="2" d="M285.64,-719.88C269.95,-710.72 250.44,-699.34 233.55,-689.48"/>
<polygon fill="grey" stroke="grey" stroke-width="2" points="234.87,-686.21 224.47,-684.19 231.34,-692.25 234.87,-686.21"/>
</g>
<!-- 13 -->
<g id="node14" class="node">
<title>13</title>
<path fill="none" stroke="#d8cb56" stroke-width="2" d="M345,-324C345,-324 255,-324 255,-324 249,-324 243,-318 243,-312 243,-312 243,-300 243,-300 243,-294 249,-288 255,-288 255,-288 345,-288 345,-288 351,-288 357,-294 357,-300 357,-300 357,-312 357,-312 357,-318 351,-324 345,-324"/>
<text text-anchor="middle" x="300" y="-303.5" font-family="sans" font-size="10.00">make_mosaic_input</text>
</g>
<!-- 2&#45;&gt;13 -->
<g id="edge19" class="edge">
<title>2&#45;&gt;13</title>
<path fill="none" stroke="grey" stroke-width="2" d="M319.65,-719.66C326.38,-693.05 338,-640.45 338,-595 338,-595 338,-595 338,-449 338,-407.63 322.77,-361.72 311.59,-333.61"/>
<polygon fill="grey" stroke="grey" stroke-width="2" points="314.72,-332.02 307.69,-324.09 308.24,-334.67 314.72,-332.02"/>
</g>
<!-- 17 -->
<g id="node18" class="node">
<title>17</title>
<path fill="none" stroke="#d85656" stroke-width="2" d="M212.5,-612C212.5,-612 169.5,-612 169.5,-612 163.5,-612 157.5,-606 157.5,-600 157.5,-600 157.5,-588 157.5,-588 157.5,-582 163.5,-576 169.5,-576 169.5,-576 212.5,-576 212.5,-576 218.5,-576 224.5,-582 224.5,-588 224.5,-588 224.5,-600 224.5,-600 224.5,-606 218.5,-612 212.5,-612"/>
<text text-anchor="middle" x="191" y="-591.5" font-family="sans" font-size="10.00">write_vcfs</text>
</g>
<!-- 2&#45;&gt;17 -->
<g id="edge27" class="edge">
<title>2&#45;&gt;17</title>
<path fill="none" stroke="grey" stroke-width="2" d="M306.71,-719.69C297.13,-700.78 280.09,-670.24 260,-648 250.06,-637 237.6,-626.64 226.01,-618.05"/>
<polygon fill="grey" stroke="grey" stroke-width="2" points="227.93,-615.12 217.77,-612.12 223.84,-620.8 227.93,-615.12"/>
</g>
<!-- 3 -->
<g id="node4" class="node">
<title>3</title>
<path fill="none" stroke="#d89556" stroke-width="2" d="M294.5,-828C294.5,-828 237.5,-828 237.5,-828 231.5,-828 225.5,-822 225.5,-816 225.5,-816 225.5,-804 225.5,-804 225.5,-798 231.5,-792 237.5,-792 237.5,-792 294.5,-792 294.5,-792 300.5,-792 306.5,-798 306.5,-804 306.5,-804 306.5,-816 306.5,-816 306.5,-822 300.5,-828 294.5,-828"/>
<text text-anchor="middle" x="266" y="-807.5" font-family="sans" font-size="10.00">sample_sites</text>
</g>
<!-- 3&#45;&gt;2 -->
<g id="edge5" class="edge">
<title>3&#45;&gt;2</title>
<path fill="none" stroke="grey" stroke-width="2" d="M278.11,-791.7C283.87,-783.47 290.86,-773.48 297.21,-764.42"/>
<polygon fill="grey" stroke="grey" stroke-width="2" points="300.16,-766.3 303.03,-756.1 294.42,-762.29 300.16,-766.3"/>
</g>
<!-- 3&#45;&gt;8 -->
<g id="edge14" class="edge">
<title>3&#45;&gt;8</title>
<path fill="none" stroke="grey" stroke-width="2" d="M257.44,-791.87C245.18,-767.35 222.52,-722.03 208.13,-693.26"/>
<polygon fill="grey" stroke="grey" stroke-width="2" points="211.2,-691.57 203.59,-684.19 204.94,-694.7 211.2,-691.57"/>
</g>
<!-- 4 -->
<g id="node5" class="node">
<title>4</title>
<path fill="none" stroke="#d6d856" stroke-width="2" d="M307.5,-900C307.5,-900 224.5,-900 224.5,-900 218.5,-900 212.5,-894 212.5,-888 212.5,-888 212.5,-876 212.5,-876 212.5,-870 218.5,-864 224.5,-864 224.5,-864 307.5,-864 307.5,-864 313.5,-864 319.5,-870 319.5,-876 319.5,-876 319.5,-888 319.5,-888 319.5,-894 313.5,-900 307.5,-900"/>
<text text-anchor="middle" x="266" y="-879.5" font-family="sans" font-size="10.00">recap_and_mutate</text>
</g>
<!-- 4&#45;&gt;3 -->
<g id="edge6" class="edge">
<title>4&#45;&gt;3</title>
<path fill="none" stroke="grey" stroke-width="2" d="M266,-863.7C266,-855.98 266,-846.71 266,-838.11"/>
<polygon fill="grey" stroke="grey" stroke-width="2" points="269.5,-838.1 266,-828.1 262.5,-838.1 269.5,-838.1"/>
</g>
<!-- 5 -->
<g id="node6" class="node">
<title>5</title>
<path fill="none" stroke="#56b9d8" stroke-width="2" d="M311.5,-972C311.5,-972 220.5,-972 220.5,-972 214.5,-972 208.5,-966 208.5,-960 208.5,-960 208.5,-948 208.5,-948 208.5,-942 214.5,-936 220.5,-936 220.5,-936 311.5,-936 311.5,-936 317.5,-936 323.5,-942 323.5,-948 323.5,-948 323.5,-960 323.5,-960 323.5,-966 317.5,-972 311.5,-972"/>
<text text-anchor="middle" x="266" y="-951.5" font-family="sans" font-size="10.00">simulate_admixture</text>
</g>
<!-- 5&#45;&gt;4 -->
<g id="edge7" class="edge">
<title>5&#45;&gt;4</title>
<path fill="none" stroke="grey" stroke-width="2" d="M266,-935.7C266,-927.98 266,-918.71 266,-910.11"/>
<polygon fill="grey" stroke="grey" stroke-width="2" points="269.5,-910.1 266,-900.1 262.5,-910.1 269.5,-910.1"/>
</g>
<!-- 6&#45;&gt;0 -->
<g id="edge2" class="edge">
<title>6&#45;&gt;0</title>
<path fill="none" stroke="grey" stroke-width="2" d="M572.75,-503.63C566.61,-476.99 556,-424.36 556,-379 556,-379 556,-379 556,-161 556,-117.7 532.6,-72.11 515.52,-44.61"/>
<polygon fill="grey" stroke="grey" stroke-width="2" points="518.36,-42.55 510.02,-36.01 512.46,-46.32 518.36,-42.55"/>
</g>
<!-- 7 -->
<g id="node8" class="node">
<title>7</title>
<path fill="none" stroke="#a7d856" stroke-width="2" d="M217,-108C217,-108 159,-108 159,-108 153,-108 147,-102 147,-96 147,-96 147,-84 147,-84 147,-78 153,-72 159,-72 159,-72 217,-72 217,-72 223,-72 229,-78 229,-84 229,-84 229,-96 229,-96 229,-102 223,-108 217,-108"/>
<text text-anchor="middle" x="188" y="-87.5" font-family="sans" font-size="10.00">get_R2_score</text>
</g>
<!-- 7&#45;&gt;0 -->
<g id="edge1" class="edge">
<title>7&#45;&gt;0</title>
<path fill="none" stroke="grey" stroke-width="2" d="M229.17,-79.7C289.92,-65.99 402.66,-40.53 460.95,-27.37"/>
<polygon fill="grey" stroke="grey" stroke-width="2" points="461.86,-30.75 470.84,-25.13 460.32,-23.92 461.86,-30.75"/>
</g>
<!-- 8&#45;&gt;7 -->
<g id="edge12" class="edge">
<title>8&#45;&gt;7</title>
<path fill="none" stroke="grey" stroke-width="2" d="M138.86,-650.21C81.25,-631.23 0,-592.21 0,-523 0,-523 0,-523 0,-233 0,-164.12 81.34,-124.42 137.02,-105.31"/>
<polygon fill="grey" stroke="grey" stroke-width="2" points="138.35,-108.55 146.74,-102.09 136.15,-101.91 138.35,-108.55"/>
</g>
<!-- 8&#45;&gt;17 -->
<g id="edge28" class="edge">
<title>8&#45;&gt;17</title>
<path fill="none" stroke="grey" stroke-width="2" d="M194.01,-647.7C193.57,-639.98 193.04,-630.71 192.55,-622.11"/>
<polygon fill="grey" stroke="grey" stroke-width="2" points="196.04,-621.89 191.98,-612.1 189.05,-622.29 196.04,-621.89"/>
</g>
<!-- 9 -->
<g id="node10" class="node">
<title>9</title>
<path fill="none" stroke="#5663d8" stroke-width="2" d="M313.5,-180C313.5,-180 248.5,-180 248.5,-180 242.5,-180 236.5,-174 236.5,-168 236.5,-168 236.5,-156 236.5,-156 236.5,-150 242.5,-144 248.5,-144 248.5,-144 313.5,-144 313.5,-144 319.5,-144 325.5,-150 325.5,-156 325.5,-156 325.5,-168 325.5,-168 325.5,-174 319.5,-180 313.5,-180"/>
<text text-anchor="middle" x="281" y="-159.5" font-family="sans" font-size="10.00">export_mosaic</text>
</g>
<!-- 9&#45;&gt;7 -->
<g id="edge9" class="edge">
<title>9&#45;&gt;7</title>
<path fill="none" stroke="grey" stroke-width="2" d="M258.01,-143.7C246.19,-134.8 231.61,-123.82 218.82,-114.2"/>
<polygon fill="grey" stroke="grey" stroke-width="2" points="220.82,-111.32 210.72,-108.1 216.61,-116.91 220.82,-111.32"/>
</g>
<!-- 10 -->
<g id="node11" class="node">
<title>10</title>
<path fill="none" stroke="#88d856" stroke-width="2" d="M324.5,-252C324.5,-252 275.5,-252 275.5,-252 269.5,-252 263.5,-246 263.5,-240 263.5,-240 263.5,-228 263.5,-228 263.5,-222 269.5,-216 275.5,-216 275.5,-216 324.5,-216 324.5,-216 330.5,-216 336.5,-222 336.5,-228 336.5,-228 336.5,-240 336.5,-240 336.5,-246 330.5,-252 324.5,-252"/>
<text text-anchor="middle" x="300" y="-231.5" font-family="sans" font-size="10.00">run_mosaic</text>
</g>
<!-- 10&#45;&gt;9 -->
<g id="edge15" class="edge">
<title>10&#45;&gt;9</title>
<path fill="none" stroke="grey" stroke-width="2" d="M295.3,-215.7C293.19,-207.9 290.64,-198.51 288.28,-189.83"/>
<polygon fill="grey" stroke="grey" stroke-width="2" points="291.64,-188.84 285.64,-180.1 284.88,-190.67 291.64,-188.84"/>
</g>
<!-- 11 -->
<g id="node12" class="node">
<title>11</title>
<path fill="none" stroke="#56d88a" stroke-width="2" d="M450.5,-324C450.5,-324 387.5,-324 387.5,-324 381.5,-324 375.5,-318 375.5,-312 375.5,-312 375.5,-300 375.5,-300 375.5,-294 381.5,-288 387.5,-288 387.5,-288 450.5,-288 450.5,-288 456.5,-288 462.5,-294 462.5,-300 462.5,-300 462.5,-312 462.5,-312 462.5,-318 456.5,-324 450.5,-324"/>
<text text-anchor="middle" x="419" y="-303.5" font-family="sans" font-size="10.00">install_mosaic</text>
</g>
<!-- 11&#45;&gt;10 -->
<g id="edge16" class="edge">
<title>11&#45;&gt;10</title>
<path fill="none" stroke="grey" stroke-width="2" d="M389.89,-287.88C374.33,-278.72 354.98,-267.34 338.22,-257.48"/>
<polygon fill="grey" stroke="grey" stroke-width="2" points="339.62,-254.24 329.22,-252.19 336.07,-260.28 339.62,-254.24"/>
</g>
<!-- 12 -->
<g id="node13" class="node">
<title>12</title>
<path fill="none" stroke="#569ad8" stroke-width="2" d="M458,-396C458,-396 378,-396 378,-396 372,-396 366,-390 366,-384 366,-384 366,-372 366,-372 366,-366 372,-360 378,-360 378,-360 458,-360 458,-360 464,-360 470,-366 470,-372 470,-372 470,-384 470,-384 470,-390 464,-396 458,-396"/>
<text text-anchor="middle" x="418" y="-375.5" font-family="sans" font-size="10.00">download_mosaic</text>
</g>
<!-- 12&#45;&gt;11 -->
<g id="edge18" class="edge">
<title>12&#45;&gt;11</title>
<path fill="none" stroke="grey" stroke-width="2" d="M418.25,-359.7C418.36,-351.98 418.49,-342.71 418.61,-334.11"/>
<polygon fill="grey" stroke="grey" stroke-width="2" points="422.11,-334.15 418.76,-324.1 415.11,-334.05 422.11,-334.15"/>
</g>
<!-- 13&#45;&gt;10 -->
<g id="edge17" class="edge">
<title>13&#45;&gt;10</title>
<path fill="none" stroke="grey" stroke-width="2" d="M300,-287.7C300,-279.98 300,-270.71 300,-262.11"/>
<polygon fill="grey" stroke="grey" stroke-width="2" points="303.5,-262.1 300,-252.1 296.5,-262.1 303.5,-262.1"/>
</g>
<!-- 14 -->
<g id="node15" class="node">
<title>14</title>
<path fill="none" stroke="#56d87b" stroke-width="2" d="M205,-396C205,-396 171,-396 171,-396 165,-396 159,-390 159,-384 159,-384 159,-372 159,-372 159,-366 165,-360 171,-360 171,-360 205,-360 205,-360 211,-360 217,-366 217,-372 217,-372 217,-384 217,-384 217,-390 211,-396 205,-396"/>
<text text-anchor="middle" x="188" y="-375.5" font-family="sans" font-size="10.00">split_vcf</text>
</g>
<!-- 14&#45;&gt;13 -->
<g id="edge20" class="edge">
<title>14&#45;&gt;13</title>
<path fill="none" stroke="grey" stroke-width="2" d="M215.4,-359.88C229.91,-350.81 247.92,-339.55 263.59,-329.76"/>
<polygon fill="grey" stroke="grey" stroke-width="2" points="265.87,-332.46 272.5,-324.19 262.16,-326.52 265.87,-332.46"/>
</g>
<!-- 18 -->
<g id="node19" class="node">
<title>18</title>
<path fill="none" stroke="#b6d856" stroke-width="2" d="M213,-324C213,-324 163,-324 163,-324 157,-324 151,-318 151,-312 151,-312 151,-300 151,-300 151,-294 157,-288 163,-288 163,-288 213,-288 213,-288 219,-288 225,-294 225,-300 225,-300 225,-312 225,-312 225,-318 219,-324 213,-324"/>
<text text-anchor="middle" x="188" y="-303.5" font-family="sans" font-size="10.00">run_RFMix2</text>
</g>
<!-- 14&#45;&gt;18 -->
<g id="edge29" class="edge">
<title>14&#45;&gt;18</title>
<path fill="none" stroke="grey" stroke-width="2" d="M188,-359.7C188,-351.98 188,-342.71 188,-334.11"/>
<polygon fill="grey" stroke="grey" stroke-width="2" points="191.5,-334.1 188,-324.1 184.5,-334.1 191.5,-334.1"/>
</g>
<!-- 19 -->
<g id="node20" class="node">
<title>19</title>
<path fill="none" stroke="#567bd8" stroke-width="2" d="M121,-324C121,-324 83,-324 83,-324 77,-324 71,-318 71,-312 71,-312 71,-300 71,-300 71,-294 77,-288 83,-288 83,-288 121,-288 121,-288 127,-288 133,-294 133,-300 133,-300 133,-312 133,-312 133,-318 127,-324 121,-324"/>
<text text-anchor="middle" x="102" y="-303.5" font-family="sans" font-size="10.00">run_bmix</text>
</g>
<!-- 14&#45;&gt;19 -->
<g id="edge31" class="edge">
<title>14&#45;&gt;19</title>
<path fill="none" stroke="grey" stroke-width="2" d="M166.74,-359.7C155.91,-350.88 142.58,-340.03 130.84,-330.47"/>
<polygon fill="grey" stroke="grey" stroke-width="2" points="132.98,-327.7 123.01,-324.1 128.56,-333.13 132.98,-327.7"/>
</g>
<!-- 15 -->
<g id="node16" class="node">
<title>15</title>
<path fill="none" stroke="#56a9d8" stroke-width="2" d="M211.5,-468C211.5,-468 164.5,-468 164.5,-468 158.5,-468 152.5,-462 152.5,-456 152.5,-456 152.5,-444 152.5,-444 152.5,-438 158.5,-432 164.5,-432 164.5,-432 211.5,-432 211.5,-432 217.5,-432 223.5,-438 223.5,-444 223.5,-444 223.5,-456 223.5,-456 223.5,-462 217.5,-468 211.5,-468"/>
<text text-anchor="middle" x="188" y="-447.5" font-family="sans" font-size="10.00">run_beagle</text>
</g>
<!-- 15&#45;&gt;14 -->
<g id="edge22" class="edge">
<title>15&#45;&gt;14</title>
<path fill="none" stroke="grey" stroke-width="2" d="M188,-431.7C188,-423.98 188,-414.71 188,-406.11"/>
<polygon fill="grey" stroke="grey" stroke-width="2" points="191.5,-406.1 188,-396.1 184.5,-406.1 191.5,-406.1"/>
</g>
<!-- 16 -->
<g id="node17" class="node">
<title>16</title>
<path fill="none" stroke="#d86656" stroke-width="2" d="M222,-540C222,-540 154,-540 154,-540 148,-540 142,-534 142,-528 142,-528 142,-516 142,-516 142,-510 148,-504 154,-504 154,-504 222,-504 222,-504 228,-504 234,-510 234,-516 234,-516 234,-528 234,-528 234,-534 228,-540 222,-540"/>
<text text-anchor="middle" x="188" y="-519.5" font-family="sans" font-size="10.00">add_geno_error</text>
</g>
<!-- 16&#45;&gt;15 -->
<g id="edge24" class="edge">
<title>16&#45;&gt;15</title>
<path fill="none" stroke="grey" stroke-width="2" d="M188,-503.7C188,-495.98 188,-486.71 188,-478.11"/>
<polygon fill="grey" stroke="grey" stroke-width="2" points="191.5,-478.1 188,-468.1 184.5,-478.1 191.5,-478.1"/>
</g>
<!-- 17&#45;&gt;13 -->
<g id="edge21" class="edge">
<title>17&#45;&gt;13</title>
<path fill="none" stroke="grey" stroke-width="2" d="M224.27,-575.77C238.09,-566.93 252.98,-554.86 262,-540 301.77,-474.48 303.72,-380.35 301.87,-334.37"/>
<polygon fill="grey" stroke="grey" stroke-width="2" points="305.37,-334.1 301.38,-324.28 298.37,-334.44 305.37,-334.1"/>
</g>
<!-- 17&#45;&gt;14 -->
<g id="edge23" class="edge">
<title>17&#45;&gt;14</title>
<path fill="none" stroke="grey" stroke-width="2" d="M158.95,-575.88C145.88,-567.05 132.18,-554.97 125,-540 103.96,-496.12 120.77,-475.29 143,-432 148.18,-421.91 155.62,-412.09 162.97,-403.69"/>
<polygon fill="grey" stroke="grey" stroke-width="2" points="165.73,-405.86 169.9,-396.12 160.56,-401.13 165.73,-405.86"/>
</g>
<!-- 17&#45;&gt;15 -->
<g id="edge25" class="edge">
<title>17&#45;&gt;15</title>
<path fill="none" stroke="grey" stroke-width="2" d="M163.66,-575.77C151.89,-566.72 139.38,-554.48 133,-540 126.55,-525.36 126.74,-518.72 133,-504 137.73,-492.86 146.08,-482.93 154.87,-474.76"/>
<polygon fill="grey" stroke="grey" stroke-width="2" points="157.35,-477.24 162.62,-468.05 152.77,-471.95 157.35,-477.24"/>
</g>
<!-- 17&#45;&gt;16 -->
<g id="edge26" class="edge">
<title>17&#45;&gt;16</title>
<path fill="none" stroke="grey" stroke-width="2" d="M190.26,-575.7C189.93,-567.98 189.53,-558.71 189.16,-550.11"/>
<polygon fill="grey" stroke="grey" stroke-width="2" points="192.66,-549.95 188.73,-540.1 185.66,-550.25 192.66,-549.95"/>
</g>
<!-- 17&#45;&gt;18 -->
<g id="edge30" class="edge">
<title>17&#45;&gt;18</title>
<path fill="none" stroke="grey" stroke-width="2" d="M214.75,-575.91C225.55,-566.65 237.2,-554.2 243,-540 258.23,-502.74 262.79,-454.92 226,-360 222.23,-350.28 216.26,-340.7 210.16,-332.42"/>
<polygon fill="grey" stroke="grey" stroke-width="2" points="212.75,-330.04 203.84,-324.3 207.22,-334.34 212.75,-330.04"/>
</g>
<!-- 17&#45;&gt;19 -->
<g id="edge32" class="edge">
<title>17&#45;&gt;19</title>
<path fill="none" stroke="grey" stroke-width="2" d="M157.24,-579.29C140.57,-570.64 121.94,-557.72 112,-540 74.95,-473.97 86.69,-380.07 95.71,-334.26"/>
<polygon fill="grey" stroke="grey" stroke-width="2" points="99.19,-334.71 97.8,-324.21 92.34,-333.29 99.19,-334.71"/>
</g>
<!-- 18&#45;&gt;7 -->
<g id="edge11" class="edge">
<title>18&#45;&gt;7</title>
<path fill="none" stroke="grey" stroke-width="2" d="M188,-287.85C188,-250.83 188,-163.18 188,-118.39"/>
<polygon fill="grey" stroke="grey" stroke-width="2" points="191.5,-118.23 188,-108.23 184.5,-118.23 191.5,-118.23"/>
</g>
<!-- 19&#45;&gt;7 -->
<g id="edge10" class="edge">
<title>19&#45;&gt;7</title>
<path fill="none" stroke="grey" stroke-width="2" d="M108.89,-287.85C123.86,-250.6 159.44,-162.07 177.33,-117.54"/>
<polygon fill="grey" stroke="grey" stroke-width="2" points="180.59,-118.82 181.07,-108.23 174.1,-116.21 180.59,-118.82"/>
</g>
</g>
</svg>
